<svg id="_4888359" data-name="4888359" xmlns="http://www.w3.org/2000/svg" width="50.475" height="50.475" viewBox="0 0 50.475 50.475">
  <g id="_ffda2dff" data-name="#ffda2dff">
    <path id="Path_1748" data-name="Path 1748" d="M1.335,0H14.979A1.51,1.51,0,0,1,16.32,1.479c0,1.485,0,2.969,0,4.454-2.713.018-5.426,0-8.139.007a2.658,2.658,0,0,0-1.6.259,1.477,1.477,0,0,0-.51,1.83A1.508,1.508,0,0,0,7.491,8.9c2.944,0,5.888.009,8.832,0q0,1.5,0,3c-1.664-.033-3.328,0-4.992-.017a1.64,1.64,0,0,0-1.158.367,1.468,1.468,0,0,0-.353,1.794,1.528,1.528,0,0,0,1.412.807c1.7-.008,3.4.019,5.092-.016q0,1.5,0,3c-2.912-.016-5.823,0-8.735-.009a1.626,1.626,0,0,0-1.133.366,1.476,1.476,0,0,0-.363,1.765,1.5,1.5,0,0,0,1.393.83c2.946.006,5.891-.012,8.837.008q0,1.489,0,2.979c-1.695-.009-3.39,0-5.085,0a1.518,1.518,0,0,0-1.329.652,1.479,1.479,0,0,0,.34,2.011,1.811,1.811,0,0,0,1.19.3c1.628-.01,3.255,0,4.884-.007q0,1.491,0,2.981c-2.946.013-5.891,0-8.838,0a1.477,1.477,0,0,0-.923,2.678,1.929,1.929,0,0,0,1.224.285c2.845-.015,5.691.008,8.537-.012,0,.477,0,.954,0,1.431,0,.515,0,1.028,0,1.542-1.663.024-3.326.007-4.989.008a1.608,1.608,0,0,0-1.309.51,1.472,1.472,0,0,0-.089,1.838,1.545,1.545,0,0,0,1.3.621c1.7.009,3.394-.016,5.091.011v.33q0,1.321,0,2.642c-2.945-.014-5.889,0-8.834,0a1.5,1.5,0,0,0-1.472,1.016,1.481,1.481,0,0,0,.754,1.79,3.037,3.037,0,0,0,1.318.152c2.745-.006,5.489,0,8.233,0,0,1.007,0,2.012,0,3.019-.009.536.021,1.074-.013,1.609a1.517,1.517,0,0,1-1.3,1.314H1.361A1.534,1.534,0,0,1,0,49.138V1.4A1.524,1.524,0,0,1,1.335,0Z" fill="#ff9d00"/>
  </g>
  <g id="_a4d772ff" data-name="#a4d772ff" transform="translate(19.306)">
    <path id="Path_1749" data-name="Path 1749" d="M298.855,0h.1q0,11.905,0,23.81a1.54,1.54,0,0,1-1.472-1.442c-.01-5.6,0-11.2,0-16.8-.392.458-.763.937-1.165,1.387a1.476,1.476,0,0,1-2.229-1.93c1.235-1.492,2.48-2.976,3.719-4.466A1.527,1.527,0,0,1,298.855,0Z" transform="translate(-284.115)" fill="#77c9ea"/>
    <path id="Path_1750" data-name="Path 1750" d="M199.927,67.906a1.491,1.491,0,0,1,2.289.109q1.811,2.177,3.625,4.352a1.5,1.5,0,0,1,.3,1.42,1.476,1.476,0,0,1-2.534.518c-.374-.439-.736-.885-1.107-1.326q0,8.339,0,16.677a1.511,1.511,0,0,1-.7,1.324,1.471,1.471,0,0,1-1.486.037,1.5,1.5,0,0,1-.769-1.353q0-8.34,0-16.681c-.386.453-.756.921-1.149,1.368a1.476,1.476,0,0,1-2.513-1.366,2.112,2.112,0,0,1,.55-.89C197.6,70.7,198.756,69.3,199.927,67.906Z" transform="translate(-195.834 -60.775)" fill="#77c9ea"/>
  </g>
  <g id="_7baf6bff" data-name="#7baf6bff" transform="translate(34.142)">
    <path id="Path_1751" data-name="Path 1751" d="M346.333,0h.3a1.732,1.732,0,0,1,.927.608q1.817,2.181,3.635,4.363a1.495,1.495,0,0,1-2.211,2.008c-.4-.442-.763-.913-1.148-1.366q.01,8.337,0,16.674a1.533,1.533,0,0,1-1.5,1.522Q346.342,11.9,346.333,0Z" transform="translate(-346.33)" fill="#02a9dd"/>
    <path id="Path_1752" data-name="Path 1752" d="M396.269,67.466a1.488,1.488,0,0,1,1.719.444q1.551,1.851,3.094,3.71a11.572,11.572,0,0,1,.742.93,1.476,1.476,0,0,1-2.344,1.759c-.4-.453-.775-.929-1.165-1.39q0,8.343,0,16.686a1.5,1.5,0,0,1-1.028,1.464,1.481,1.481,0,0,1-1.8-.814,2.709,2.709,0,0,1-.126-1.152q0-8.09,0-16.182c-.385.452-.755.919-1.147,1.366a1.477,1.477,0,0,1-2.5-1.439,2.371,2.371,0,0,1,.538-.821q1.572-1.882,3.141-3.769A2.3,2.3,0,0,1,396.269,67.466Z" transform="translate(-387.177 -60.714)" fill="#02a9dd"/>
  </g>
  <g id="_fdbf00ff" data-name="#fdbf00ff" transform="translate(5.939 5.933)">
    <path id="Path_1753" data-name="Path 1753" d="M60.9,60.446a2.658,2.658,0,0,1,1.6-.259c2.713,0,5.426.011,8.139-.007,0,.987,0,1.973,0,2.959-2.944.014-5.888,0-8.832,0a1.508,1.508,0,0,1-1.416-.869A1.477,1.477,0,0,1,60.9,60.446Z" transform="translate(-60.257 -60.18)" fill="#ffd085"/>
    <path id="Path_1754" data-name="Path 1754" d="M98.445,120.787a1.64,1.64,0,0,1,1.158-.367c1.664.014,3.328-.016,4.992.017q0,1.468,0,2.936c-1.7.035-3.4.008-5.092.016a1.528,1.528,0,0,1-1.412-.807A1.468,1.468,0,0,1,98.445,120.787Z" transform="translate(-94.211 -114.48)" fill="#ffd085"/>
    <path id="Path_1755" data-name="Path 1755" d="M60.781,181.072a1.626,1.626,0,0,1,1.133-.366c2.912.009,5.823-.007,8.735.009q0,1.48,0,2.959c-2.946-.02-5.891,0-8.837-.008a1.5,1.5,0,0,1-1.393-.83A1.476,1.476,0,0,1,60.781,181.072Z" transform="translate(-60.265 -168.824)" fill="#ffd085"/>
    <path id="Path_1756" data-name="Path 1756" d="M98.194,241.629a1.518,1.518,0,0,1,1.329-.652c1.695,0,3.39,0,5.085,0q0,1.476,0,2.951c-1.629.009-3.256,0-4.884.007a1.811,1.811,0,0,1-1.19-.3A1.479,1.479,0,0,1,98.194,241.629Z" transform="translate(-94.224 -223.153)" fill="#ffd085"/>
    <path id="Path_1757" data-name="Path 1757" d="M60.535,301.866a1.493,1.493,0,0,1,1.288-.651c2.947,0,5.892.008,8.838,0q0,1.477,0,2.956c-2.846.02-5.692,0-8.537.012a1.929,1.929,0,0,1-1.224-.285A1.479,1.479,0,0,1,60.535,301.866Z" transform="translate(-60.278 -277.448)" fill="#ffd085"/>
    <path id="Path_1758" data-name="Path 1758" d="M98.31,361.868a1.608,1.608,0,0,1,1.309-.51c1.663,0,3.326.016,4.989-.008q0,1.494,0,2.987c-1.7-.027-3.394,0-5.091-.011a1.545,1.545,0,0,1-1.3-.621A1.472,1.472,0,0,1,98.31,361.868Z" transform="translate(-94.226 -331.66)" fill="#ffd085"/>
    <path id="Path_1759" data-name="Path 1759" d="M60.325,422.744a1.5,1.5,0,0,1,1.472-1.016c2.945,0,5.889-.009,8.834,0,0,.385,0,.771,0,1.156-.008.6,0,1.2,0,1.794-2.744,0-5.488,0-8.233,0a3.037,3.037,0,0,1-1.318-.152A1.481,1.481,0,0,1,60.325,422.744Z" transform="translate(-60.247 -386.082)" fill="#ffd085"/>
  </g>
  <g id="_7fa6fbff" data-name="#7fa6fbff" transform="translate(34.033 32.942)">
    <path id="Path_1760" data-name="Path 1760" d="M345.22,334.946a1.463,1.463,0,0,1,1.9-.66,1.591,1.591,0,0,1,.915,1.518,1.911,1.911,0,0,0,2.286,1.727,1.94,1.94,0,0,0,1.353-1.067c.255-.493.086-1.1.4-1.577a1.49,1.49,0,0,1,2-.542,1.547,1.547,0,0,1,.781,1.371,1.936,1.936,0,0,0,2.076,1.855,1.965,1.965,0,0,0,1.529-1.018,2.737,2.737,0,0,0,.258-1.142,1.5,1.5,0,0,1,1.667-1.245,1.573,1.573,0,0,1,1.277,1.2v.776a5,5,0,0,1-1.959,3.441,4.919,4.919,0,0,1-4.661.663,5.2,5.2,0,0,1-1.7-1.07,4.921,4.921,0,0,1-6.816,0,4.919,4.919,0,0,1-1.187.838c-.028-1.466-.011-2.933-.008-4.4A2.711,2.711,0,0,0,345.22,334.946Z" transform="translate(-345.22 -334.152)" fill="#02a9dd"/>
    <path id="Path_1761" data-name="Path 1761" d="M345.47,422.333a1.481,1.481,0,0,1,2.107-.483,1.6,1.6,0,0,1,.682,1.355,1.912,1.912,0,0,0,3.62.736c.288-.5.1-1.145.427-1.632a1.5,1.5,0,0,1,1.955-.546,1.56,1.56,0,0,1,.823,1.456,1.916,1.916,0,0,0,3.731.463,5.659,5.659,0,0,0,.145-.945A1.5,1.5,0,0,1,360.5,421.6a1.544,1.544,0,0,1,1.386,1.2v.763a4.99,4.99,0,0,1-1.923,3.432,4.888,4.888,0,0,1-3.591.961,4.942,4.942,0,0,1-2.791-1.338,4.934,4.934,0,0,1-6.818.018,6.808,6.808,0,0,1-1.216.825c.018-1.383-.007-2.765.013-4.147A5.1,5.1,0,0,0,345.47,422.333Z" transform="translate(-345.445 -412.975)" fill="#02a9dd"/>
  </g>
  <g id="_97bcfcff" data-name="#97bcfcff" transform="translate(16.321 32.965)">
    <path id="Path_1762" data-name="Path 1762" d="M170.247,334.551a1.479,1.479,0,0,1,1.92.534c.328.47.146,1.086.4,1.583a1.933,1.933,0,0,0,3.692-.738,1.521,1.521,0,0,1,.865-1.4,1.479,1.479,0,0,1,1.9.606c.276.435.135.981.335,1.441a1.934,1.934,0,0,0,3.657-.167,5.18,5.18,0,0,1,.256-1.249,2.712,2.712,0,0,1,.113.67c0,1.466-.02,2.933.008,4.4a4.917,4.917,0,0,1-5.645-.857,4.99,4.99,0,0,1-3.07,1.372,4.909,4.909,0,0,1-3.763-1.374,4.948,4.948,0,0,1-5.354.994v-.33q0-1.494,0-2.987c0-.514,0-1.027,0-1.542a2.561,2.561,0,0,0,.245,1.31,1.933,1.933,0,0,0,3.617-.878A1.529,1.529,0,0,1,170.247,334.551Z" transform="translate(-165.564 -334.388)" fill="#77c9ea"/>
    <path id="Path_1763" data-name="Path 1763" d="M169.644,422.472a1.477,1.477,0,0,1,1.739-.644,1.5,1.5,0,0,1,1.009,1.413,1.935,1.935,0,0,0,3.869,0,1.5,1.5,0,0,1,1.006-1.414,1.48,1.48,0,0,1,1.779.708c.25.44.11.979.323,1.43a1.935,1.935,0,0,0,3.558.038c.236-.485.088-1.066.368-1.536a5.1,5.1,0,0,1,.09.98c-.02,1.382,0,2.764-.013,4.147a4.929,4.929,0,0,1-5.63-.867,4.9,4.9,0,0,1-6.83,0,4.943,4.943,0,0,1-5.353.991c0-1.007,0-2.012,0-3.019,0-.6,0-1.2,0-1.794a6.347,6.347,0,0,0,.061.808,1.933,1.933,0,0,0,3.626.319C169.514,423.548,169.337,422.941,169.644,422.472Z" transform="translate(-165.56 -413.135)" fill="#77c9ea"/>
  </g>
</svg>
