<?xml version="1.0" encoding="utf-8"?>
<!-- Generator: Adobe Illustrator 18.0.0, SVG Export Plug-In . SVG Version: 6.00 Build 0)  -->
<!DOCTYPE svg PUBLIC "-//W3C//DTD SVG 1.1//EN" "http://www.w3.org/Graphics/SVG/1.1/DTD/svg11.dtd">
<svg version="1.1" id="Layer_1" xmlns="http://www.w3.org/2000/svg" xmlns:xlink="http://www.w3.org/1999/xlink" x="0px" y="0px"
	 viewBox="528 0 171 770" enable-background="new 528 0 171 770" xml:space="preserve">
<g>
	<path fill="#126B65" d="M538.4,414.4L670.9,403l-5-83.2c-0.4-6.5-5.9-11.4-12.4-11c-0.1,0-0.1,0-0.2,0l-82.6,6.2
		c0,0-23.6-2.6-26.3-16.3s12.7-20,12.7-20l103.7-87.4L608,126c-4-5-11.3-5.8-16.3-1.9L528,174v241.1
		C533.6,414.1,538.4,414.4,538.4,414.4z"/>
	<path fill="#126B65" d="M593.7,498.7L528,454.5v115.3c8.8,5.6,14.4,9.1,14.4,9.1l9.8,6.3l44.8-70.4
		C600.4,509.4,598.9,502.3,593.7,498.7z"/>
</g>
</svg>
