<svg xmlns="http://www.w3.org/2000/svg" width="596.727" height="595.869" viewBox="0 0 596.727 595.869">
  <g id="Group_489" data-name="Group 489" transform="translate(-1422.03 -1283.169)" opacity="0.06">
    <path id="Path_18036" data-name="Path 18036" d="M148.45,262.9l67.018-47.87a51.4,51.4,0,0,1,29.874-9.574H407.616a10.123,10.123,0,0,0,8.865-15.01l-11.138-20.205a37.063,37.063,0,0,1-.171-35.466l42.8-79.451a101.569,101.569,0,0,1,32.756-36.112C494.447,9.982,511.759.335,524.388.155,544-.127,614.027.047,640.328.123A10.109,10.109,0,0,1,650.4,10.245V72.223a10.124,10.124,0,0,1-9.859,10.119L558.41,84.51s-8.333,0-11.458,12.151,14.234,21.523,14.234,21.523l91.3,69.779L610.253,246.3A10.122,10.122,0,0,1,596,248.475l-57.378-42.808s-18.4-9.026-26.731-.348,0,20.484,0,20.484l35.06,111.782-68.658,23.191a10.125,10.125,0,0,1-12.781-6.212l-26.177-73.914s-7.985-12.845-17.359-12.845-12.148,9.723-12.148,9.723L371.3,395.906l-68.611-22.973a10.126,10.126,0,0,1-6.528-12.354l20.636-72.986s5.553-17.008-6.6-20.133-16.315-3.125-28.117,5.9-90.26,66.306-90.26,66.306L146.157,277.1A10.123,10.123,0,0,1,148.45,262.9" transform="translate(2074.518 1679.076) rotate(180)" fill="#126b65"/>
    <path id="Path_18037" data-name="Path 18037" d="M116.273,460.441v-76.4a9.015,9.015,0,0,1,9.014-9.014h79.369s11.61,1.564,15.4-12.158-7.006-19.262-7.006-19.262l-96.779-73.847,40.794-58.771a9.017,9.017,0,0,1,12.629-2.207L232.9,253.707s15.992,9.343,23.026-.583,1.783-18.971,1.783-18.971l-38.527-111.5,69.89-25.037a9.015,9.015,0,0,1,11.47,5.294l28.386,74.908s5.547,14.3,18.1,12.553,13.133-16.055,13.133-16.055L397.522,62.524l70.906,21.9a9.015,9.015,0,0,1,5.993,11.144L452.4,170.814s-3.793,18.68,7.006,21.016,17.511.583,30.647-11.968,83.77-61.588,83.77-61.588L619.5,178.831a9.014,9.014,0,0,1-1.732,12.6l-63.355,48.291a48.361,48.361,0,0,1-29.324,9.9H486.541a9.012,9.012,0,0,0-7.839,4.565l-49.713,87.6a9.014,9.014,0,0,1-15.672.013l-16-28.1a9.014,9.014,0,0,1,7.833-13.475h24.638a9.012,9.012,0,0,0,7.807-13.516L418.8,254.131A9.015,9.015,0,0,0,411,249.623H310.28a9.014,9.014,0,0,0-7.836,13.471l79.97,140.558a9.015,9.015,0,0,1-7.684,13.471l-39.661.662a57.847,57.847,0,0,0-28.291,7.934l-43.615,25.569a48.866,48.866,0,0,1-23.745,6.7Z" transform="translate(2135.029 1941.562) rotate(180)" fill="#0b2f34"/>
  </g>
</svg>
