<svg xmlns="http://www.w3.org/2000/svg" xmlns:xlink="http://www.w3.org/1999/xlink" width="34.855" height="34.778" viewBox="0 0 34.855 34.778">
  <defs>
    <linearGradient id="linear-gradient" x1="0.5" x2="0.5" y2="1" gradientUnits="objectBoundingBox">
      <stop offset="0" stop-color="#ffd085"/>
      <stop offset="1" stop-color="#ff9d00"/>
    </linearGradient>
  </defs>
  <g id="Group_502" data-name="Group 502" transform="translate(-1414.499 -1342.511)">
    <path id="_3668839_gear_maintenance_service_icon_1_" data-name="3668839_gear_maintenance_service_icon (1)" d="M37.485,17.466l-4.238-.438a17.417,17.417,0,0,0-1.169-2.922l2.63-3.361c.292-.292.146-.731,0-1.023L31.494,6.507a.706.706,0,0,0-1.023,0l-3.361,2.63a10.2,10.2,0,0,0-2.922-1.169L23.75,3.731C23.457,3.292,23.165,3,22.873,3h-4.53a.669.669,0,0,0-.731.584l-.438,4.238a17.416,17.416,0,0,0-2.922,1.169L10.745,6.507c-.292-.292-.731-.146-1.023,0L6.507,9.722a.706.706,0,0,0,0,1.023l2.63,3.361a10.2,10.2,0,0,0-1.169,2.922l-4.238.438C3.292,17.612,3,17.9,3,18.2v4.53a.669.669,0,0,0,.584.731l4.238.438a17.416,17.416,0,0,0,1.169,2.922l-2.63,3.361c-.292.292-.146.731,0,1.023l3.215,3.215a.706.706,0,0,0,1.023,0l3.361-2.63a10.2,10.2,0,0,0,2.922,1.169l.438,4.238c0,.438.292.584.731.584h4.53a.669.669,0,0,0,.731-.584l.438-4.238a17.416,17.416,0,0,0,2.922-1.169l3.361,2.63c.292.292.731.146,1.023,0L34.271,31.2a.706.706,0,0,0,0-1.023l-2.63-3.361A10.2,10.2,0,0,0,32.809,23.9l4.238-.438c.438,0,.584-.292.584-.731V18.2C38.07,17.9,37.778,17.612,37.485,17.466ZM20.535,26.38a5.845,5.845,0,1,1,5.845-5.845A5.862,5.862,0,0,1,20.535,26.38Z" transform="translate(1411.499 1339.511)" fill="url(#linear-gradient)"/>
  </g>
</svg>
