<?xml version="1.0" encoding="utf-8"?>
<!-- Generator: Adobe Illustrator 18.0.0, SVG Export Plug-In . SVG Version: 6.00 Build 0)  -->
<!DOCTYPE svg PUBLIC "-//W3C//DTD SVG 1.1//EN" "http://www.w3.org/Graphics/SVG/1.1/DTD/svg11.dtd">
<svg version="1.1" id="Layer_1" xmlns="http://www.w3.org/2000/svg" xmlns:xlink="http://www.w3.org/1999/xlink" x="0px" y="0px"
	 viewBox="0 0 699 697.3" enable-background="new 0 0 699 697.3" xml:space="preserve">
<g id="Group_495" transform="translate(4.144 3.731)">
	<path id="Path_18036" fill="#126B65" d="M107.3,154l77.6,55.4c10.1,7.2,22.2,11.1,34.6,11.1h187.9c6.5,0,11.7,5.2,11.7,11.7
		c0,2-0.5,3.9-1.5,5.7l-12.9,23.4c-7,12.8-7.1,28.2-0.2,41.1l49.5,92c9.1,16.8,22.1,31.2,37.9,41.8c15.9,10.7,35.9,21.9,50.5,22.1
		c22.7,0.3,134.2,0,134.2,0h11.7v-83.5c0-6.4-5.1-11.5-11.4-11.7l-95.1-2.5c0,0-9.6,0-13.3-14.1c-3.6-14.1,16.5-24.9,16.5-24.9
		l105.7-80.8l-48.9-67.5c-3.8-5.2-11.1-6.4-16.4-2.6c0,0-0.1,0.1-0.1,0.1L559,220.2c0,0-21.3,10.4-30.9,0.4c-9.6-10,0-23.7,0-23.7
		l40.6-129.4l-79.5-26.8c-6.1-2.1-12.7,1.2-14.8,7.2L444,133.4c0,0-9.2,14.9-20.1,14.9S409.9,137,409.9,137L365.3,0l-79.4,26.6
		c-5.9,2-9.3,8.3-7.6,14.3l23.9,84.5c0,0,6.4,19.7-7.6,23.3s-18.9,3.6-32.5-6.8c-13.7-10.4-104.5-76.8-104.5-76.8l-52.9,72.4
		C100.8,142.8,102,150.1,107.3,154C107.2,153.9,107.3,153.9,107.3,154"/>
	<path id="Path_18037" fill="#0B2F34" d="M0,229.2l0,88.4c0,5.8,4.7,10.4,10.4,10.4h91.9c0,0,13.4-1.8,17.8,14.1s-8.1,22.3-8.1,22.3
		L0,449.9l47.2,68c3.3,4.7,9.8,5.9,14.5,2.6c0,0,0.1,0,0.1-0.1l73.2-52c0,0,18.5-10.8,26.7,0.7s2.1,22,2.1,22l-44.6,129.1l80.9,29
		c5.4,1.9,11.3-0.8,13.3-6.1l32.9-86.7c0,0,6.4-16.6,20.9-14.5c14.5,2,15.2,18.6,15.2,18.6l43.3,129.4l82.1-25.4
		c5.4-1.7,8.5-7.4,6.9-12.9l-25.5-87.1c0,0-4.4-21.6,8.1-24.3c12.5-2.7,20.3-0.7,35.5,13.9s97,71.3,97,71.3l52.9-70.1
		c3.5-4.6,2.6-11.1-2-14.6l-73.3-55.9c-9.8-7.4-21.7-11.5-33.9-11.5h-44.6c-3.8,0-7.2-2-9.1-5.3L362,366.5c-2.8-5-9.2-6.8-14.2-3.9
		c-1.6,0.9-3,2.3-3.9,3.9L325.3,399c-2.9,5-1.1,11.4,3.9,14.2c1.6,0.9,3.4,1.4,5.2,1.4h28.5c5.8,0,10.4,4.7,10.4,10.4
		c0,1.8-0.5,3.6-1.4,5.2L350.2,468c-1.9,3.2-5.3,5.2-9,5.2H224.6c-5.8,0-10.4-4.7-10.4-10.4c0-1.8,0.5-3.6,1.4-5.2l92.6-162.7
		c2.9-5,1.1-11.4-3.9-14.2c-1.5-0.9-3.2-1.3-5-1.4l-45.9-0.8c-11.5-0.2-22.8-3.4-32.8-9.2L170,239.8c-8.3-4.9-17.8-7.6-27.5-7.8
		L0,229.2z"/>
</g>
</svg>
