<?xml version="1.0" encoding="utf-8"?>
<!-- Generator: Adobe Illustrator 18.0.0, SVG Export Plug-In . SVG Version: 6.00 Build 0)  -->
<!DOCTYPE svg PUBLIC "-//W3C//DTD SVG 1.1//EN" "http://www.w3.org/Graphics/SVG/1.1/DTD/svg11.dtd">
<svg version="1.1" id="Layer_1" xmlns="http://www.w3.org/2000/svg" xmlns:xlink="http://www.w3.org/1999/xlink" x="0px" y="0px"
	 viewBox="0 0 400 400" enable-background="new 0 0 400 400" xml:space="preserve">
<g id="Group_495" transform="translate(4.144 3.731)">
	<path id="Path_18036" fill="#050000" d="M59.6,87l44.4,31.7c5.8,4.1,12.7,6.4,19.8,6.4h107.5c3.7,0,6.7,3,6.7,6.7
		c0,1.1-0.3,2.2-0.9,3.3l-7.4,13.4c-4,7.3-4.1,16.1-0.1,23.5l28.3,52.6c5.2,9.6,12.6,17.9,21.7,23.9c9.1,6.1,20.5,12.5,28.9,12.6
		c13,0.2,76.8,0,76.8,0h6.7v-47.8c0-3.7-2.9-6.6-6.5-6.7l-54.4-1.4c0,0-5.5,0-7.6-8.1c-2.1-8.1,9.4-14.2,9.4-14.2l60.5-46.2
		l-28-38.6c-2.2-3-6.4-3.7-9.4-1.5l-0.1,0.1l-37.9,28.3c0,0-12.2,6-17.7,0.2c-5.5-5.7,0-13.6,0-13.6l23.2-74l-45.5-15.3
		c-3.5-1.2-7.3,0.7-8.5,4.1l-17.4,48.9c0,0-5.3,8.5-11.5,8.5c-6.2,0-8-6.5-8-6.5L207.3-1.1l-45.4,15.2c-3.4,1.1-5.3,4.7-4.3,8.2
		l13.7,48.4c0,0,3.7,11.3-4.3,13.3S156,86,148.2,80.1c-7.8-6-59.8-43.9-59.8-43.9L58.1,77.6C55.9,80.6,56.6,84.8,59.6,87
		C59.6,87,59.6,87,59.6,87"/>
	<path id="Path_18037" fill="#050000" d="M-1.8,130v50.6c0,3.3,2.7,6,6,6h52.6c0,0,7.7-1,10.2,8.1s-4.6,12.8-4.6,12.8l-64.1,48.9
		l27,38.9c1.9,2.7,5.6,3.4,8.3,1.5c0,0,0.1,0,0.1-0.1l41.9-29.8c0,0,10.6-6.2,15.3,0.4c4.7,6.6,1.2,12.6,1.2,12.6l-25.5,73.9
		l46.3,16.6c3.1,1.1,6.5-0.5,7.6-3.5l18.8-49.6c0,0,3.7-9.5,12-8.3c8.3,1.1,8.7,10.6,8.7,10.6l24.8,74l47-14.5
		c3.1-1,4.9-4.2,3.9-7.4l-14.6-49.8c0,0-2.5-12.4,4.6-13.9s11.6-0.4,20.3,8c8.7,8.4,55.5,40.8,55.5,40.8l30.3-40.1
		c2-2.6,1.5-6.4-1.1-8.4l-41.9-32c-5.6-4.2-12.4-6.6-19.4-6.6h-25.5c-2.2,0-4.1-1.1-5.2-3l-33.1-58.1c-1.6-2.9-5.3-3.9-8.1-2.2
		c-0.9,0.5-1.7,1.3-2.2,2.2l-10.6,18.6c-1.7,2.9-0.6,6.5,2.2,8.1c0.9,0.5,1.9,0.8,3,0.8h16.3c3.3,0,6,2.7,6,6c0,1-0.3,2.1-0.8,3
		l-12.4,21.6c-1.1,1.8-3,3-5.2,3h-66.7c-3.3,0-6-2.7-6-6c0-1,0.3-2.1,0.8-3l53-93.1c1.7-2.9,0.6-6.5-2.2-8.1
		c-0.9-0.5-1.8-0.7-2.9-0.8l-26.3-0.5c-6.6-0.1-13-1.9-18.8-5.3l-29-16.9c-4.7-2.8-10.2-4.3-15.7-4.5L-1.8,130z"/>
</g>
</svg>
