<svg xmlns="http://www.w3.org/2000/svg" width="699.03" height="697.329" viewBox="0 0 699.03 697.329">
  <g id="Group_495" data-name="Group 495" transform="translate(4.144 3.731)">
    <path id="Path_18036" data-name="Path 18036" d="M727.7,304.338l-77.582-55.416a59.5,59.5,0,0,0-34.583-11.083H427.68a11.718,11.718,0,0,1-10.262-17.376l12.894-23.39a42.9,42.9,0,0,0,.2-41.056L380.965,64.043a117.579,117.579,0,0,0-37.919-41.8C327.162,11.556,307.122.388,292.5.179,269.8-.147,158.287.143,158.287.143H146.622V83.607A11.72,11.72,0,0,0,158.034,95.32l95.083,2.511s9.646,0,13.264,14.066S249.9,136.812,249.9,136.812L144.21,217.59,193.1,285.119a11.718,11.718,0,0,0,16.5,2.522l66.422-49.555s21.3-10.449,30.944-.4,0,23.713,0,23.713L266.381,390.8l79.48,26.846a11.721,11.721,0,0,0,14.8-7.191l30.3-85.564s9.243-14.869,20.1-14.869,14.063,11.255,14.063,11.255l44.607,137.036,79.425-26.594a11.722,11.722,0,0,0,7.557-14.3l-23.889-84.49s-6.429-19.689,7.638-23.306,18.886-3.617,32.549,6.832,104.487,76.757,104.487,76.757l52.857-72.425a11.719,11.719,0,0,0-2.654-16.445" transform="translate(-144.21 231.481)" fill="#126b65" />
    <path id="Path_18037" data-name="Path 18037" d="M700.924,523.162V434.721a10.436,10.436,0,0,0-10.434-10.434H598.61s-13.44,1.811-17.83-14.074,8.111-22.3,8.111-22.3l112.033-85.487L653.7,234.393a10.438,10.438,0,0,0-14.62-2.555l-73.169,52s-18.512,10.816-26.656-.674-2.063-21.961-2.063-21.961l44.6-129.076-80.906-28.983a10.436,10.436,0,0,0-13.279,6.128L454.746,195.99s-6.421,16.559-20.949,14.532-15.2-18.585-15.2-18.585L375.343,62.524,293.26,87.875a10.435,10.435,0,0,0-6.938,12.9l25.5,87.107s4.391,21.624-8.111,24.329-20.271.674-35.478-13.854-96.974-71.3-96.974-71.3l-52.879,70.1a10.434,10.434,0,0,0,2,14.583l73.341,55.9a55.984,55.984,0,0,0,33.946,11.464h44.622a10.432,10.432,0,0,1,9.075,5.285l57.549,101.4a10.434,10.434,0,0,0,18.142.015l18.523-32.527a10.435,10.435,0,0,0-9.067-15.6H337.992a10.433,10.433,0,0,1-9.038-15.646l21.752-37.713a10.436,10.436,0,0,1,9.038-5.219H476.337a10.435,10.435,0,0,1,9.071,15.595L392.832,457.422a10.436,10.436,0,0,0,8.9,15.595l45.912.766a66.966,66.966,0,0,1,32.751,9.185l50.49,29.6a56.569,56.569,0,0,0,27.488,7.755Z" transform="translate(-10.138 -62.524)" fill="#0b2f34" />
  </g>
</svg>
