<svg id="Group_483" data-name="Group 483" xmlns="http://www.w3.org/2000/svg" xmlns:xlink="http://www.w3.org/1999/xlink" width="75.214" height="67.378" viewBox="0 0 75.214 67.378">
  <defs>
    <linearGradient id="linear-gradient" x1="1.145" y1="1.093" x2="0.1" y2="0.154" gradientUnits="objectBoundingBox">
      <stop offset="0.305" stop-color="#ffd085"/>
      <stop offset="0.741" stop-color="#ff9d00"/>
    </linearGradient>
    <linearGradient id="linear-gradient-2" x1="2.045" y1="0.982" x2="2.045" y2="6.048" xlink:href="#linear-gradient"/>
  </defs>
  <g id="Group_5" data-name="Group 5">
    <path id="Path_10" data-name="Path 10" d="M10.977,52.55c.249-.5.5-.872.747-1.37a21.809,21.809,0,0,1,4.234-4.109c.747-.623,1.619-1.245,2.491-1.992.249-.249.5-.374.623-.5h0a.972.972,0,0,0,.5-.5h0a.233.233,0,0,0,0-.374c.5-.5.747-1.121,1.37-1.868l.623-.872A21.433,21.433,0,0,0,23.8,36.486,5.792,5.792,0,0,1,25.8,33.373a6.682,6.682,0,0,0,1.743-2.241l.249-.747a11.283,11.283,0,0,1,1.37-2.74,13.635,13.635,0,0,1,1.245-1.37,19.627,19.627,0,0,0,1.868-2.241l.125-.249a20.2,20.2,0,0,0,3.362,3.736,19.841,19.841,0,0,1,1.619,1.619,11.227,11.227,0,0,0-1.121,1.245h0a10.659,10.659,0,0,0-1.37,2.989,12.956,12.956,0,0,1-1,2.491,10.443,10.443,0,0,0-1.245,2.864,13.966,13.966,0,0,1-.623,1.619c-.623,1.37-1.868,1.868-3.113,2.366A13.754,13.754,0,0,0,25.8,44.58a13.738,13.738,0,0,0-2.241,3.238l-.125.249a23.755,23.755,0,0,1-1.868,2.615c-.5.623-1,1.37-1.619,2.117l-.125.125-1.494,2.241c-.125.125-.125.125-.125.249a2.119,2.119,0,0,1,.872.125,20.283,20.283,0,0,0,1.37-2.117l.125-.125A12.573,12.573,0,0,1,22.185,51.3a15.507,15.507,0,0,0,1.992-2.74l.125-.249A14.174,14.174,0,0,1,26.543,45.2a8.438,8.438,0,0,1,2.864-1.743c1.37-.623,2.74-1.245,3.362-2.74a6.564,6.564,0,0,0,.623-1.868,10.94,10.94,0,0,1,1.121-2.615,9.8,9.8,0,0,0,1.121-2.74A10.018,10.018,0,0,1,37,30.633h0c.374-.5.747-.747,1-1.121a13.333,13.333,0,0,1,1.619,2.615h0l.125.125h0l.125.125h0a10.2,10.2,0,0,0,2.491,3.736h0l.125.125h0l.125.125h0l.125.125h0a8.8,8.8,0,0,1-2.241,3.362,10.965,10.965,0,0,0-3.113,5.728l-.125.125a17.76,17.76,0,0,1-1.121,3.362,10.885,10.885,0,0,1-1.743,1.992A10.913,10.913,0,0,1,32.271,52.8c-.747.374-1.245.747-1.743,1-.249.125-1.37,1.245-2.241,1.992.249.125.5.125.747.249l.623-.623h0a9.5,9.5,0,0,1,1.37-1c.5-.249,1-.623,1.619-1a11.545,11.545,0,0,0,2.241-1.868,9.319,9.319,0,0,0,1.868-2.241A16.581,16.581,0,0,0,38,45.826l.125-.125a10.538,10.538,0,0,1,2.989-5.479A9.766,9.766,0,0,0,43.6,36.486h0a12.059,12.059,0,0,1,3.985-5.479,20.615,20.615,0,0,0,2.864-2.864c.5-.623.872-.623,1.245-.374a8.149,8.149,0,0,1,1.494,1.868,10.387,10.387,0,0,1,1,1.494,9.415,9.415,0,0,1,1.37,2.74l.249.747a8,8,0,0,0,1.619,2.241,5.691,5.691,0,0,1,1.992,2.989l.249.872a11.993,11.993,0,0,0,1.37,2.989L62.9,46.946l.125.125.872.872a.122.122,0,0,0,.125.125l1.121,1.121a22.48,22.48,0,0,0,2.366,1.868h0c.623.5,1.121.872,1.619,1.245a33.855,33.855,0,0,0,5.106-17.932C73.738,15.441,58.422,0,39.369,0A34.358,34.358,0,0,0,5,34.369,33.289,33.289,0,0,0,9.234,50.807c1.494,2.241,1.619,1.992,1.743,1.743Z" transform="translate(-3.132)" fill="url(#linear-gradient)"/>
    <path id="Path_11" data-name="Path 11" d="M57.655,48.62a36.161,36.161,0,0,1-4.732-1.743c-1.619-.747-3.113-4.857-3.362-5.355l.125-3.985c0-.125-.125-.249-.125-.374,0,0-3.736-1.868-3.736-3.113-.125-1.494-3.611-4.234-3.611-4.234-.125-.125-.5-.125-.5.125-.125.125-.125.5.125.5,0,0,3.113,2.491,3.238,3.736.125,1.37,3.113,3.113,3.985,3.611l-.125,3.86v.125s1.743,4.857,3.736,5.728c.125.125.125.125.249.125s.249.125.374.125c1.619.5,3.113.872,4.607,1.245A1.791,1.791,0,0,0,57.655,48.62Z" transform="translate(5.853 7.293)" fill="url(#linear-gradient-2)"/>
    <path id="Path_12" data-name="Path 12" d="M54.307,46.984c-.125.125-.125.125-.125.249-3.985,3.238-8.468,3.611-13.2,2.864a67.62,67.62,0,0,1-10.46-2.615c-.249-.125-.5-.125-.747-.249a3.255,3.255,0,0,1-1-.374c-1.37-.5-2.864-.872-4.234-1.245a1.579,1.579,0,0,0-.747-.125,31.143,31.143,0,0,0-4.732-.747c-.249,0-.623-.125-.872-.125a28.449,28.449,0,0,0-4.607,0c-.374,0-.747.125-1,.125.125.249.374.5.5.747h0c-.125-.249-.374-.5-.5-.747a17.072,17.072,0,0,0-4.358,1c-.249.125-.623.125-.872.374a13.754,13.754,0,0,0-3.113,1.868,5.416,5.416,0,0,0-.747.872,12.544,12.544,0,0,1,4.607-.872,25.62,25.62,0,0,1,7.6,1.37.749.749,0,0,0,.5.125,97.29,97.29,0,0,1,9.339,3.736c.872.374,1.868.747,2.74,1.121A35.646,35.646,0,0,0,37,56.448a19.4,19.4,0,0,0,11.581-3.238c.125-.125.374-.249.5-.374a21.289,21.289,0,0,0,1.743-1.37,24.567,24.567,0,0,0,3.736-4.234C54.68,47.109,54.431,47.109,54.307,46.984Z" transform="translate(-3.5 10.92)" fill="#02a9dd"/>
    <path id="Path_13" data-name="Path 13" d="M67.669,46.415a14.689,14.689,0,0,1-2.491.5H63.684a14.034,14.034,0,0,1-2.241-.374c-.623-.125-1.121-.249-1.743-.374-1.619-.374-3.113-.747-4.607-1.245-.125,0-.249-.125-.374-.125-4.234-1.37-8.468-2.74-12.951-2.491a12.542,12.542,0,0,0-8.468,2.74c1.868.374,3.238-.374,4.857,0a42.055,42.055,0,0,1,8.717,2.864.457.457,0,0,0,.374.125c1.868.747,3.985,1.619,5.853,2.491a17.405,17.405,0,0,0,4.234,1,14.682,14.682,0,0,0,8.343-1.37c.374-.125.747-.5,1.121-.623A16.393,16.393,0,0,0,71.4,45.294,17.69,17.69,0,0,0,67.669,46.415Z" transform="translate(3.809 10.369)" fill="#77c9ea"/>
  </g>
</svg>
