<?xml version="1.0" encoding="utf-8"?>
<!-- Generator: Adobe Illustrator 18.0.0, SVG Export Plug-In . SVG Version: 6.00 Build 0)  -->
<!DOCTYPE svg PUBLIC "-//W3C//DTD SVG 1.1//EN" "http://www.w3.org/Graphics/SVG/1.1/DTD/svg11.dtd">
<svg version="1.1" id="Layer_1" xmlns="http://www.w3.org/2000/svg" xmlns:xlink="http://www.w3.org/1999/xlink" x="0px" y="0px"
	 viewBox="0 0 26 8" enable-background="new 0 0 26 8" xml:space="preserve">
<path fill="#FFFFFF" d="M25.42,8H0.58C0.26,8,0,7.74,0,7.42V6.58C0,6.26,0.26,6,0.58,6h24.85C25.74,6,26,6.26,26,6.58v0.85
	C26,7.74,25.74,8,25.42,8z"/>
<path fill="#FFFFFF" d="M11.46,1.85L1.3,7.87c-0.27,0.16-0.63,0.07-0.79-0.2L0.08,6.94c-0.16-0.27-0.07-0.63,0.2-0.79l10.16-6.02
	c0.27-0.16,0.63-0.07,0.79,0.2l0.43,0.73C11.83,1.34,11.74,1.69,11.46,1.85z"/>
</svg>
