<?xml version="1.0" encoding="utf-8"?>
<!-- Generator: Adobe Illustrator 18.0.0, SVG Export Plug-In . SVG Version: 6.00 Build 0)  -->
<!DOCTYPE svg PUBLIC "-//W3C//DTD SVG 1.1//EN" "http://www.w3.org/Graphics/SVG/1.1/DTD/svg11.dtd">
<svg version="1.1" id="Layer_1" xmlns="http://www.w3.org/2000/svg" xmlns:xlink="http://www.w3.org/1999/xlink" x="0px" y="0px"
	 viewBox="0 0 93.2 78.5" enable-background="new 0 0 93.2 78.5" xml:space="preserve">
<path fill="#09AADC" d="M91.8,57.3l-47.7,22c-0.6,0.3-1.4,0.3-2-0.1L1.2,57.9c-1.7-0.9-1.6-3.3,0.1-4.1l48-22.5
	c0.7-0.3,1.4-0.3,2.1,0.1L92,53.2C93.6,54.1,93.6,56.6,91.8,57.3z"/>
<path fill="#0B8EAD" d="M91.8,56.3l-47.7,22c-0.6,0.3-1.4,0.3-2-0.1L1.2,56.9c-1.7-0.9-1.6-3.3,0.1-4.1l48-22.5
	c0.7-0.3,1.4-0.3,2.1,0.1L92,52.2C93.6,53.1,93.6,55.6,91.8,56.3z"/>
<path fill="#0F97B7" d="M91.8,47.3l-47.7,22c-0.6,0.3-1.4,0.3-2-0.1L1.2,47.9c-1.7-0.9-1.6-3.3,0.1-4.1l48-22.5
	c0.7-0.3,1.4-0.3,2.1,0.1L92,43.2C93.6,44.1,93.6,46.5,91.8,47.3z"/>
<path fill="#09AADC" d="M91.8,46.3l-47.7,22c-0.6,0.3-1.4,0.3-2-0.1L1.2,46.9c-1.7-0.9-1.6-3.3,0.1-4.1l48-22.5
	c0.7-0.3,1.4-0.3,2.1,0.1L92,42.2C93.6,43.1,93.6,45.5,91.8,46.3z"/>
<path fill="#FC9D04" d="M91.8,37.3l-47.7,22c-0.6,0.3-1.4,0.3-2-0.1L1.2,37.9c-1.7-0.9-1.6-3.3,0.1-4.1l48-22.5
	c0.7-0.3,1.4-0.3,2.1,0.1L92,33.2C93.6,34.1,93.6,36.5,91.8,37.3z"/>
<path fill="#C17508" d="M91.8,36.3l-47.7,22c-0.6,0.3-1.4,0.3-2-0.1L1.2,36.9c-1.7-0.9-1.6-3.3,0.1-4.1l48-22.5
	c0.7-0.3,1.4-0.3,2.1,0.1L92,32.2C93.6,33.1,93.6,35.5,91.8,36.3z"/>
<path fill="#C17508" d="M91.8,27.3l-47.7,22c-0.6,0.3-1.4,0.3-2-0.1L1.2,27.9c-1.7-0.9-1.6-3.3,0.1-4.1l48-22.5
	c0.7-0.3,1.4-0.3,2.1,0.1L92,23.2C93.6,24.1,93.6,26.5,91.8,27.3z"/>
<path fill="#FC9D04" d="M91.8,26.3l-47.7,22c-0.6,0.3-1.4,0.3-2-0.1L1.2,26.9c-1.7-0.9-1.6-3.3,0.1-4.1l48-22.5
	c0.7-0.3,1.4-0.3,2.1,0.1L92,22.2C93.6,23.1,93.6,25.5,91.8,26.3z"/>
</svg>
