<svg xmlns="http://www.w3.org/2000/svg" width="100.079" height="103.332" viewBox="0 0 100.079 103.332">
  <g id="Screenshot_2023-06-24_163646" data-name="Screenshot 2023-06-24 163646" transform="translate(-18.04 -5.005)">
    <g id="_000000ff" data-name="#000000ff" transform="translate(18.04 5.005)">
      <path id="Path_1706" data-name="Path 1706" d="M35.578,5.576A17.958,17.958,0,1,1,22.085,25.342,18.04,18.04,0,0,1,35.578,5.576m.769,4.695a13.216,13.216,0,0,0,1.368,25.758c8.355,1.749,16.734-6.335,15.3-14.744C52.242,13.559,43.778,7.947,36.347,10.271Z" transform="translate(-18.898 -5.005)" fill="#02a9dd"/>
      <path id="Path_1707" data-name="Path 1707" d="M42.6,15.73c1.282.008,2.565.008,3.847.008-.008,2.573-.008,5.153-.023,7.726,2.479,0,4.951-.008,7.431.008v3.8c-3.754.039-7.508.016-11.255.023Q42.623,21.513,42.6,15.73Z" transform="translate(-23.511 -7.394)" fill="#ffa10a"/>
      <path id="Path_1708" data-name="Path 1708" d="M76.218,17.718q6.109-.012,12.211,0c-.062,13.415.008,26.831-.031,40.246,3.669.047,7.345.008,11.021.047.047,1.073.1,2.153.148,3.233-3.723-.008-7.446-.016-11.161,0,.008,14.55-.023,29.093.016,43.643-4.057.008-8.107,0-12.164,0-.016-.871-.031-1.741-.047-2.6,3.2-.023,6.412-.016,9.615-.008q-.058-20.519-.008-41.039c-3.187,0-6.381.008-9.576-.008-.008-1.08-.008-2.153-.016-3.233,3.2-.008,6.4,0,9.6-.008-.039-12.537-.016-25.066-.008-37.6q-4.78,0-9.545.008C76.257,19.724,76.233,18.387,76.218,17.718Z" transform="translate(-30.997 -7.836)" fill="#ffa10a"/>
      <path id="Path_1709" data-name="Path 1709" d="M122.691,32.942c4.531-1.78,10.065,2,9.933,6.894.381,4.749-4.671,8.783-9.218,7.462a7.473,7.473,0,0,1-5.767-7.438A7.6,7.6,0,0,1,122.691,32.942Z" transform="translate(-40.224 -11.128)" fill="#02a9dd"/>
      <path id="Path_1710" data-name="Path 1710" d="M28.4,53.5c3.878-1.516,8.192,2.658,6.824,6.583-1.026,3.878-6.653,5.083-9.164,1.951C23.507,59.375,24.906,54.517,28.4,53.5Z" transform="translate(-19.535 -15.736)" fill="#02a9dd"/>
      <path id="Path_1711" data-name="Path 1711" d="M55.4,53.528c3.863-1.609,8.262,2.549,6.933,6.5-.987,3.972-6.785,5.153-9.257,1.912A5.341,5.341,0,0,1,55.4,53.528Z" transform="translate(-25.571 -15.735)" fill="#77c9ea"/>
      <path id="Path_1712" data-name="Path 1712" d="M110.712,61.039c1.959-4.252,6.14-6.98,10.369-8.659.591.637,1.189,1.282,1.78,1.928.7-.645,1.391-1.282,2.091-1.92,4.4,1.9,8.837,4.8,10.571,9.5a47.255,47.255,0,0,1,2.565,15.8c-.466,2.946-5.215,2.891-5.635-.031-.4-4.011-.7-8.045-1.492-12.009-.738,4.3.2,8.7-.9,12.941-.334,9.288.039,18.6-.171,27.888.062,1.928-1.842,2.79-3.3,3.49-9.311-2.13,2.985-18.685-3.824-21.755-8.62,3.739,4.827,16.657-1.99,21.017a3.537,3.537,0,0,1-5.161-3.459c.008-13.423.054-26.839-.505-40.238-1.143,4-1.174,8.177-1.733,12.265-.614,3.194-5.977,2.511-5.674-.777.389-5.394.762-10.983,3.016-15.98m10.415,5.713c.591.824,1.174,1.648,1.757,2.479l1.912-2.448c-.684-4.011-1.073-8.068-1.982-12.04C122.293,58.753,121.7,62.749,121.127,66.751Z" transform="translate(-38.008 -15.558)" fill="#02a9dd"/>
      <path id="Path_1713" data-name="Path 1713" d="M23.007,69.712c1.648-1.135,3.972-3.311,5.752-1.181.482-.4.964-.816,1.446-1.22,5.379,2.052,9.514,7.9,8.184,13.68a13.712,13.712,0,0,1-3.35.241c-.256-1.5-.505-3.008-.832-4.493-.124,1.485-.2,2.969-.256,4.461q-5.34-.023-10.672,0c-.117-1.508-.249-3.016-.412-4.516-.264,1.5-.49,3.008-.707,4.508-1.376,0-2.744,0-4.119-.008.552-4.135,1.321-8.853,4.967-11.472m5.775-.808c-.3,3.4-2.542,7.345-.319,10.462.373-.474,1.111-1.43,1.485-1.9C29.411,74.632,29.093,71.771,28.782,68.9Z" transform="translate(-18.04 -18.884)" fill="#02a9dd"/>
      <path id="Path_1714" data-name="Path 1714" d="M50.071,69.764c1.671-1.127,4.057-3.435,5.806-1.213.474-.412.956-.832,1.43-1.251,2.285,1.22,4.726,2.472,6.218,4.679,1.865,2.7,2.238,6.063,2.8,9.21H62.142c-.256-1.492-.513-2.977-.839-4.446-.117,1.477-.163,2.961-.2,4.454-3.568-.016-7.143-.008-10.711-.008-.124-1.5-.264-2.992-.443-4.493-.233,1.523-.435,3.047-.645,4.578a17.025,17.025,0,0,1-3.389-.311c-.148-.256-.435-.777-.583-1.034.583-3.707,1.508-7.827,4.741-10.166m5.806-.871c-.264,3.412-2.565,7.423-.218,10.485.474-.637.94-1.282,1.407-1.928C56.546,74.614,56.235,71.754,55.877,68.893Z" transform="translate(-24.119 -18.881)" fill="#77c9ea"/>
      <path id="Path_1715" data-name="Path 1715" d="M28.472,93.18a8.558,8.558,0,0,1,4.835-2.542c1.617.334,2.106,2.021,2.868,3.241,1.4-.062,2.806-.109,4.213-.132.738-1.314,1.088-3.451,3-3.428,1.819.389,4.143.839,4.943,2.759a20.2,20.2,0,0,1-.847,3.3q1.574,1.4,3.086,2.853c1.508-.42,3.552-1.811,4.741-.07.871,1.446,2.052,3.132,1.516,4.9a11.229,11.229,0,0,1-3.055,2.13c.093,1.376.155,2.759.187,4.135,1.275.715,3.49,1.119,3.389,3a7.806,7.806,0,0,1-1.8,4.4c-1.267,1.111-2.86-.023-4.244-.249q-1.376,1.586-2.845,3.086c.443,1.422,1.648,3.125.389,4.485-1.539,1.08-3.513,2.254-5.456,1.617a20.545,20.545,0,0,1-1.865-2.93c-1.384.093-2.775.148-4.166.179-.668,1.259-1.026,3.008-2.619,3.42a10.29,10.29,0,0,1-4.493-1.508c-1.446-1.236-.35-3.086-.016-4.562q-1.574-1.4-3.086-2.853c-1.329.381-2.8,1.485-4.182.645a8.355,8.355,0,0,1-2.262-4.9c.505-1.415,2.044-1.873,3.195-2.6q-.082-2.122-.117-4.244c-1.251-.645-2.915-.964-3.435-2.464a8.209,8.209,0,0,1,1.85-4.912c1.3-.933,2.868,0,4.252.218q1.4-1.562,2.868-3.055c-.4-1.259-1.36-2.549-.847-3.917m7.493,6.739a9.4,9.4,0,0,0,1.228,18.157c6.117,1.384,12.249-4.765,10.9-10.874A9.431,9.431,0,0,0,35.965,99.919Z" transform="translate(-18.555 -24.009)" fill="#02a9dd"/>
    </g>
  </g>
</svg>
