<?xml version="1.0" encoding="utf-8"?>
<!-- Generator: Adobe Illustrator 18.0.0, SVG Export Plug-In . SVG Version: 6.00 Build 0)  -->
<!DOCTYPE svg PUBLIC "-//W3C//DTD SVG 1.1//EN" "http://www.w3.org/Graphics/SVG/1.1/DTD/svg11.dtd">
<svg version="1.1" id="Layer_1" xmlns="http://www.w3.org/2000/svg" xmlns:xlink="http://www.w3.org/1999/xlink" x="0px" y="0px"
	 viewBox="0 0 26 8" enable-background="new 0 0 26 8" xml:space="preserve">
<path fill="#FFFFFF" d="M0.58,8h24.85C25.74,8,26,7.74,26,7.42V6.58C26,6.26,25.74,6,25.42,6H0.58C0.26,6,0,6.26,0,6.58l0,0.85
	C0,7.74,0.26,8,0.58,8z"/>
<path fill="#FFFFFF" d="M14.54,1.85L24.7,7.87c0.27,0.16,0.63,0.07,0.79-0.2l0.43-0.73c0.16-0.27,0.07-0.63-0.2-0.79L15.56,0.13
	c-0.27-0.16-0.63-0.07-0.79,0.2l-0.43,0.73C14.17,1.34,14.26,1.69,14.54,1.85z"/>
</svg>
