<?xml version="1.0" encoding="utf-8"?>
<!-- Generator: Adobe Illustrator 18.0.0, SVG Export Plug-In . SVG Version: 6.00 Build 0)  -->
<!DOCTYPE svg PUBLIC "-//W3C//DTD SVG 1.1//EN" "http://www.w3.org/Graphics/SVG/1.1/DTD/svg11.dtd">
<svg version="1.1" id="Layer_1" xmlns="http://www.w3.org/2000/svg" xmlns:xlink="http://www.w3.org/1999/xlink" x="0px" y="0px"
	 viewBox="0 0 36.7 161.7" enable-background="new 0 0 36.7 161.7" xml:space="preserve">
<path fill="#373739" d="M15.9,123.5L15.9,123.5L15.9,0h-1.2v123.5l0,0C6.4,123.8,0,130.6,0,138.8c0,8.4,6.9,15.3,15.3,15.3
	s15.3-6.9,15.3-15.3C30.6,130.6,24.2,123.8,15.9,123.5z M15.3,153.3c-8,0-14.5-6.5-14.5-14.5c0-7.7,6-14,13.7-14.4l1.5,0
	c7.7,0.4,13.7,6.7,13.7,14.4C29.8,146.8,23.3,153.3,15.3,153.3z"/>
</svg>
