<svg xmlns="http://www.w3.org/2000/svg" width="400.346" height="402.895" viewBox="0 0 400.346 402.895">
  <g id="Group_579" data-name="Group 579" transform="translate(-10356.01 -1060.523)">
    <path id="Path_3219" data-name="Path 3219" d="M525.113,132.093c.2-26.514-.3-53.045.253-79.543.253.606.741,1.818.993,2.424.505,26.161-.488,52.355.505,78.5,6.936,4.057,12.811,9.612,18.973,14.713q.353-4.874.69-9.747c4.31.05,8.636.286,12.946-.067,4.293-4.225,6.145-10.421,8.922-15.69-7.34-.017-14.663.034-22-.1q-.354-20.959,0-41.918,75.351-.152,150.736.084-.05,20.656.051,41.312c-8.2-.1-16.447-.589-24.545.859-.808-.539-1.582-1.077-2.34-1.616,8.636.1,17.272-.471,25.925-.185-.034-13.148-.034-26.3-.067-39.443-26.279-.269-52.54-.118-78.8-.084-.017,1.717-.051,5.168-.067,6.885,2.643-1.65,5.1-5.37,8.7-4.158,1.953.438,2.609,2.744,3.518,4.293-1.549,3.535-4.259,6.38-6.751,9.259-2.071,2.306-4.108,4.646-6.178,6.953Q609.2,113,601.643,120.982c10.673-.606,21.4.926,32.036-.152l-1.347,1.145A50.223,50.223,0,0,0,614,148.136c-8.838-2.946-19.646-3.249-27.289,2.795-6.683,5.219-9.579,14.04-9.478,22.272,3.047,8.485,9.949,16.8,19.444,17.912,10.858,1.027,21.8.522,32.709.758.118-1.212.354-3.653.471-4.865q3.99.151,7.98.556c.825-1.953.471-6.363,3.687-5.572,3.131-.3,3.687,3.67,5.286,5.522,1.717-.724,3.417-2.9,5.438-1.683,1.128,1.582,2.188,3.215,3.215,4.9l-1.717-1.481L650.7,186.6c-3.922.505-1.515,4.815-1.936,7.306-.067.758-.185,2.289-.253,3.047-1.2-4.966-2.525-10.471-6.6-13.872-5.673,1.229.017,8.013.539,11.548l-2.643.3c-.774.084-2.323.269-3.081.354-.387.05-1.145.135-1.532.185-13.451-1.279-27.39,1.145-40.5-2.828-6.448-2.155-11.565-6.852-15.521-12.239-2.744-.067-5.471-.1-8.182-.118-1.347,3.3-2.66,6.633-3.687,10.067q-2.778,3.055-5.64,6.044c-.253.236-.774.69-1.027.909-5.606-.354-9.343,4.057-13.232,7.323,0,10.808-.2,21.6-.034,32.406q20.656.152,41.312-.034c-3.821-5.858-8.552-11.027-12.575-16.717,22.895.152,45.773-.168,68.668.051,1.145,1.532,2.306,3.064,3.468,4.613,1.683,2.256,3.35,4.512,5.034,6.767a49.112,49.112,0,0,0,4.192,5.151c4.73.926,9.612,0,14.394,0-1.751-3.131-3.6-6.212-5.337-9.343.034-.875.1-2.643.135-3.518,3.2,8,8.215,15.067,12.222,22.659,2.424,5.926,10.05,5.2,15.336,5.454,7.188-1.3,14.949.673,21.632-2.929-3.249-5.421-7.155-13.787-1.33-18.888a25.819,25.819,0,0,0,9.629-12.037c-.572,3.266-1.077,6.986-4.04,9.023-2.491,2.576-6.8,4.175-7.138,8.182-1.364,5.825,3.636,10.4,4.764,15.858,12.912.219,25.824.067,38.736.084-1.683-8.1-3.569-16.178-5.875-24.107.354-.051,1.044-.135,1.4-.185,1.986,8.535,4.276,17.02,5.926,25.622-20.42-.034-40.857,0-61.294-.034q-.051,11.54,0,23.063c23.164-.354,46.413.825,69.526-.657a20.6,20.6,0,0,0,13.333-25.067q-3.207-13.585-6.582-27.137a19.027,19.027,0,0,0-19.882-14.259c-9.73.791-20.168-1.986-29.258,2.39a35.752,35.752,0,0,1-3.249-9.276c-1.7-5.589-3.67-11.161-3.2-17.1.842-.909,1.7-1.818,2.576-2.71,1.717-2.643,4.6-3.72,7.559-4.31-1.3-3.788-1.448-8.838,2.626-10.993,4.444-3.249,11.38.808,11.043,6.229.253,3.6-2.929,5.791-5.151,8.047,10.639,4.6,21.01,9.8,31.565,14.612,4.983,2,8.855,6.919,8.451,12.458.185,3.754-2.593,6.633-3.485,10.067,3.283,10.5,5.471,21.3,8.114,31.969,2.054,8.148-.118,17.07-6.717,22.525-.656,8.316,4.259,16.784.286,24.814-2.071,5.808-7.306,9.326-12.323,12.357-.825.454-2.475,1.347-3.3,1.8-18.737-.269-37.474.253-56.21-.051l-2.071-.758-1.145-.892c-.842,1.683-2.525,5.033-3.367,6.717,1.128-.219,3.367-.64,4.495-.842l-3.788,1.145c2.155,8.013.471,16.212.791,24.326,3.956,9.309,9.916,17.643,14.764,26.531,1.01,1.751,2,3.518,3.013,5.3q1.919,3.384,3.8,6.818c-1.465.892-2.9,1.818-4.31,2.778l-1.364,1.044c-6.3,2.963-12.222,6.616-18.232,10.118,2.02,3.72,3.788,7.609,6.229,11.094,2.576,2.492,7.576,2.037,8.653,6.077a19.439,19.439,0,0,0,9.326,11.043c3.4-2.929,6.885-5.741,10.4-8.535-4.714-9.192-11.38-17.508-14.73-27.306,1.364,1.919,2.694,3.906,3.906,5.959,4.225,7.374,7.9,15.151,13.266,21.8,4.326,7.373,7.222,15.488,11.279,23.013,5.118,4.293,7.693,10.538,11.144,16.094-12.828.067-25.656-.286-38.45.438-8.131-6.532-21.245-6.549-29.343-.017-7.054-.017-14.124.387-21.161-.168-7.963-2.794-14.04-11.043-23.333-8.905.37,3.687.791,7.357,1.162,11.043q-13.485-3.535-26.935-7.07c-2.357-.2-3.569-2.441-5.084-3.872-21.06-.017-42.12-.051-63.18.017.017,2.576-.017,7.609-3.889,6.953-24.78-.084-49.578.387-74.358-.236-.034-3.081-.017-6.161.084-9.242,3.838-9.41,2.02-20,3.7-29.881.657-.673,1.97-2.037,2.626-2.71.64-4.209,1.263-8.417,1.616-12.643.387.185,1.162.539,1.549.724l-.606,2.66a71.141,71.141,0,0,0-1.38,10.522c10.1.253,20.218.185,30.319-.084.05-2.087.118-4.175.185-6.246.135-3.367.4-6.717.673-10.084-11.027.152-22.053-.034-33.08.219.774-23.922,2.475-47.827,3.754-71.715.943-9.023-2.374-17.659-3.5-26.481-.269.034-.808.084-1.094.118-1.246,20.74-3.064,41.985-12.205,60.974-5.825,14.292-11.784,28.534-17.508,42.877l-5.438-.875a122.523,122.523,0,0,1-6.9,13.484,21.841,21.841,0,0,1,3.855,9.764c6.4.572,14.545-2.1,19.174,3.872,3.047,4.714,7.929,8.468,8.905,14.276-1.9,3.182-6.229,3.4-9.309,5.017-9.848,3.283-20.387,10.808-30.874,5.286-14.41-7.39-29.561-13.468-43.382-21.868,1.38-3.653,3.485-6.835,7.02-8.67,4.512-6.027,7.862-12.862,11.835-19.259,4.461.471,5.825-4.714,6.7-8.114-.185-5.572,2.357-10.623,3.922-15.841,5.808-17.946,11.734-35.874,17.407-53.87,2.828,1.6,5.656,3.266,8.653,4.6-1.246-1.128-3.72-3.384-4.966-4.528,1.246-.151,3.7-.454,4.949-.606l-.118-1.683c-2.694.387-5.37.791-8.03,1.178-.034-10.74.185-21.464.4-32.188,8.182.337,17.2-1.212,22.693-7.9,8.114-8.8,6.6-21.666,5.707-32.625-2.912,9.192,1.364,19.932-4.613,28.332-4.781,8.4-14.73,11.229-23.838,10.488q.177-10.883.219-21.733c.034-5.32.135-10.623.168-15.925-.875-.034-2.66-.118-3.535-.152.657-10.387,1.6-20.757,1.852-31.161-7.845-1.246-15.774-2.34-23.45-4.444-8.417-3.283-11.75-14.006-7.525-21.767,5.134-9.057,10.724-17.845,15.875-26.885-1.414-1.33-5.471-2.963-2.828-5.252,8.384-11.128,14.579-24.561,26.582-32.39,10.421-7.07,23.282-8.1,35.218-10.892.993-6.212-5.707-3.687-9.478-4.242,1.987-8.384,3.266-18.636,11.027-23.8,4.141-.269,9.831-2.087,12.845,1.835,3.485,4.36,5.2,9.815,6.784,15.1.37,1.751,1.111,5.269,1.481,7.02-1.8-.084-5.421-.286-7.222-.37-.69-6.835-.017-14.191-4.091-20.134-1.566.034-4.714.084-6.279.118-2.357,5.017-3.182,10.538-3.569,16.01,4.377,1.2,8.939,1.061,12.542-2.172-.606,1.65-1.8,4.932-2.39,6.582.135,1.061.4,3.2.539,4.259,14.41,2.795,28.922,6.33,41.615,14.023m22.238-50.5c-.337,13.266-.185,26.548-.051,39.814,6.7.084,13.4,0,20.117.135-1.633-3.754-2.34-7.811-1.111-11.767,2.256-3.333,4.36-6.767,6.616-10.1l-1.279-.825,1.313.589c1.448-4.478,2.407-9.141,4.31-13.468,2.071-2.475,6.111-1.768,8,.606,1.178,4.882-1.077,9.831-2,14.562.724.152,2.138.438,2.862.589.37-.859,1.094-2.559,1.465-3.4.808-.118,2.424-.32,3.232-.438.017,1.027.067,3.064.084,4.074,1.65-.707,4.916-2.138,6.549-2.845.539-3.535.808-7.205,2.34-10.471,2.357-2.222,5.741-.4,8.468-.067.438-2.34.859-4.68,1.279-7.02-20.723.067-41.463-.286-62.187.034m64,.724c-5.539,9.781-2.9,21.195-4.815,31.75q3.283-3.687,6.65-7.306c-.118-.875-.387-2.593-.505-3.451h1.4c-.219-6.65,2.205-13,2.205-19.612l-1.212-1.33c-.926-.017-2.778-.034-3.72-.051M622.383,85.9a13.865,13.865,0,0,0-7.054,12.626c.976.993,1.953,2,2.929,3.013,2.626-4.158,6.481-7.34,9.276-11.363,2.1-2.744-2.862-7-5.151-4.276m-44.409.96C576.122,92.246,575.112,98,572,102.868c-2.087,4.057-5.606,7.879-5.185,12.744.572,3.434,3.754,6.852,1.448,10.3-5.741,10.976-11.717,21.834-17.609,32.726-2.828-2.34-5.673-4.646-8.569-6.9-7.458,6.734-15.353,12.946-23.063,19.393,1.717,1.6,3.417,3.2,5.135,4.8,5.37-4.7,10.724-9.427,16.212-13.989,4.731.623,9.107,3.03,13.636,4.545-4.831,4.512-10.016,8.636-14.9,13.08,2.475,2.929,4.932,5.909,7.357,8.889,5.539-3.754,10.286-8.5,15.471-12.71,1.667,4.175.707,10.488,3.771,13.518,3.468-6.262,6.027-13.1,9.175-19.562a159.1,159.1,0,0,1,8.485-19.9,188.544,188.544,0,0,1,7.744-18.232c4.276-5.791,9.713-10.639,14.09-16.346,1.633-7.609,1.431-15.437.993-23.147.387-3.148-2.189-4.225-4.882-3.434-4.343,6.734-.236,15.538-4.461,22.306-2.121,3.316-4.831,6.414-8.417,8.148,4.815-5.32,10.471-10.673,9.663-18.6-4.831,2.121-10.033,2.879-15.218,3.5-.37,1.97-.724,3.922-1.044,5.892-.354-.034-1.077-.084-1.431-.1a191.839,191.839,0,0,0,3.939-19.477c1.515-3.973-3.821-6.464-6.363-3.451M472.539,111.184c.185,3.872-2.205,9.242,1.784,11.952,4.8,3.67,10.858-4.613,7.289-8.653-3.013-1.128-6.128-2.037-9.074-3.3m-9.714,9.259c1.044,3.35,2.205,6.65,3.535,9.916,2.879-1.717,5.757-3.417,8.619-5.168a11.834,11.834,0,0,1-4.495-5.791c-2.559.354-5.118.69-7.66,1.044m20.925-.943c-1.431,2.087-2.946,4.108-4.478,6.111a92.772,92.772,0,0,0,9.545,3.754c.791-2.963,1.616-5.926,2.424-8.889-2.508-.337-5-.657-7.491-.976m-46.43,9.916c-12.542,8.013-18.77,22.1-27.592,33.534,10.067,5.892,20.016,12,30.134,17.828,3.266-4.949,5.606-10.623,10.016-14.713-3.636,9.091-10.808,15.841-15.959,23.9,15.622,4.562,30.942,10.2,46.632,14.494,9.343-.707,18.787-5.757,28.029-1.448,2.289-1.919,4.579-3.821,6.919-5.673-.151-10.993-.673-21.986-.808-32.979.084-5.64-2.34-11.666-.118-17.1.286,8.165,1.246,16.3,1.566,24.46,9.68-7.171,18.282-15.673,28.08-22.693-13.872-14.326-32.238-24.8-52.12-27.524a47.524,47.524,0,0,1-2.643,8.6c-3,1.027-5.892-1.751-8.653-2.508-.017,8.653-.051,17.323.017,25.976-2.273.067-4.545.135-6.818.219-.758-8.687.842-17.542-1.128-26.077-2.407,1.431-4.8,2.862-7.222,4.242-1.38-3.518-2.66-7.054-3.754-10.656-8.569,1.279-17.272,3.232-24.578,8.114m164.254-7.34c-5.2,4.444-10.32,9.629-12.205,16.4,9.074.017,18.148.1,27.221-.051,2.828-6.313,8.215-10.724,12.289-16.127-9.091-.4-18.232-.859-27.305-.219m-127.067,4.192c.758,8.636-.556,17.474.825,26.009l3.973.471c.522-8.771.337-17.592.1-26.38-1.229-.017-3.67-.067-4.9-.1m72.876,13.552c.236,5.64-3.013,13.484,3.1,17.02,2.9-5.741,5.993-11.38,9.04-17.053-4.057-.051-8.1-.051-12.138.034m40.857.219c-1.279,3.7-2.828,7.306-4.242,10.959,8.333-6.532,19.578-7.542,29.46-4.461.825-2.273,1.667-4.528,2.525-6.784-9.259.168-18.5-.253-27.743.286M544.86,150.594h0m-19.006,25.471a87.86,87.86,0,0,1,1.5,13.114c-7.256,5.808-14.292,11.9-21.683,17.558a142.657,142.657,0,0,0,13.434,7.845c5.707-5.421,10.993-11.414,17.457-15.959,3.956.724,7.66,2.458,11.431,3.838,4.36-2.424,7.525-9.074,13.03-8.013l-.724-2.66c.673-.354,2.054-1.044,2.727-1.4-.253-4.175-.808-8.333-1.465-12.458-4.966,3.552-9.158,8.047-14.192,11.5-4.478-1.431-6.6-6.8-9.882-10,4.444-4.562,10.118-7.845,13.922-13.013-3.552-1.094-7.087-2.239-10.623-3.35-4.865,4.461-10.05,8.552-14.932,13m47.877,2.138,3.232.067c.808-2.155-.825-4.293-1.279-6.363-1.38,1.162-2.609,4.293-1.953,6.3m-56.985-6.767c-1.044,8.249-.017,16.565-.051,24.848,2.778-2.256,5.539-4.545,8.384-6.7.1-3.872.034-7.744-.067-11.6-2.71-2.256-5.4-4.528-8.266-6.549M409.7,172.883c-3.619,7.037-8.081,13.6-11.936,20.5-3.283,5.438-2.559,13.215,2.306,17.508,3.687,4.04,9.478,4.343,14.528,5.236C435.5,220,456.378,224.077,477.32,227.8c7.374,1.3,12.878,6.969,19.73,9.6,4.983-.2,10.033,1.077,14.915.808,1.885-5.4-6.5-5.741-8.67-9.714,3.788,1.01,9.394,7.626,11.9,1.616-2.02-2.946-5.656-4.091-7.929-6.784,3.889,1.5,7.272,4.747,11.7,4.411,1.01-6.515-7.02-6.616-9.949-10.993,3.266,1.212,6.145,4.209,9.815,3.855.084-.993.269-2.98.354-3.99-5.185-3.99-11.229-6.65-16.75-10.134.808-.269,2.407-.825,3.215-1.094l1.212-2.172c-9.511-3.165-18.6,3-28.029,2.205q-31.186-10-62.405-19.882a10.136,10.136,0,0,1-3.922-2.289c6.969,1.717,13.6,4.512,20.605,6.128,1.616-2.845,3.3-5.656,5.017-8.451-9.461-2.744-18.77-6.06-28.433-8.03M719.13,191.8c.673,1.414,1.364,2.845,2.054,4.259,3.3,2.9,7.727,4.158,11.919,2.087.269.269.825.774,1.111,1.044-1.7.522-3.384,1.077-5.05,1.65.589,2.155,1.162,4.326,1.734,6.5,3.906.05,7.794.118,11.7.168-1.448-6.515-3.047-13.013-4.714-19.478q-5.429-1.086-10.757-2.542c-2.71,2.054-5.353,4.175-8,6.313m-87.472-2.912c-1.616,3,5.976,3.99,6.515,1.33a5.244,5.244,0,0,0-6.515-1.33M528.43,207.074v.084c-3.2,2.9-1.683,7.34-1.986,11.111q.025,103.1-.017,206.222c1.347.084,4.04.236,5.387.32l.522.774c3.586.454,7.879.051,10.421,3.182,3.6,2.963,2.256,8,2.727,12.037l1.465.067,1.246,1.9c19.814.724,39.729.151,59.577.253-6.279-4.865-15.639-4.966-22.878-2.155-3.636-.842-7.256-2.155-10.909-2.525-3.956-1.616-8.367-2.037-12.188-3.939-5.151-4.427-9.9-9.326-14.7-14.124,1.38-3.182,5.572-8.973-.741-9.242-.067-13.67-.034-27.322-.017-40.975,26.632.454,53.315-.657,79.913.606,4.461-8.6,9.629-16.8,14.309-25.3,8.3-13.989,16.733-28.013,24.292-42.389,4.6-5.522,6.869-12.727,12.272-17.609,5.1-5,12.239-6.784,18.619-9.512-2.862-2.862-7.054-3.047-10.825-3.333,2.441-.236,5.2-.774,5.976-3.485a5.212,5.212,0,0,0,2.946,2.912c2.693-5.825,1.279-12.424,1.465-18.6-12.222.084-26.8-6.9-37.137,2.424,4.293.118,8.619-.017,12.929.118-5.976,1.869-15.218.488-16.9,8.569,4.781-3.99,11.06-3.72,16.868-3.636-7.155,1.094-17.71,1.448-18.131,11.111,2.407-1.7,4.663-3.67,7.222-5.168,3.535-.909,7.256-.488,10.875-.269-2.256,1.145-4.865.892-7.289,1.094-4.579-.471-8.72,3.838-9.714,7.929,1.784,4.326,4.9.707,6.885-1.128l2.222,1.835c8.148.556,16.329.152,24.494-.067a40.918,40.918,0,0,0-22.491,23.989c-5.555,8.855-10.69,17.979-15.656,27.171-1.465-2-2.845-4.04-4.225-6.077q-1.869-3.333-3.737-6.65l-2.087-3.5c-2.879-4.613-5.488-9.461-6.481-14.848a130.435,130.435,0,0,0-19.68-.993c-22.339.286-44.7-.152-67.035.236.2-13.754-.017-27.524.168-41.278,18.316-.657,36.632.387,54.931-.471-3.872-5.2-7.458-10.656-11.8-15.488-14.36-.539-28.787-.034-43.164-.2-.017-11.7,0-23.4.151-35.1-3.384-1.145-6.8-2.256-10.269-3.114-2.542,2.492-5.135,4.916-7.828,7.239m-8.215,7.845c-.825,4.916.69,10.336-1.9,14.831.455,7.02.455,14.074.387,21.11-.96-.067-2.879-.185-3.838-.253,1.246,15.656,2.845,31.278,4.276,46.9.943,12.845,3.434,25.639,2.155,38.568-2.138,19.41-3.8,38.871-6.229,58.247l-5.1-.2c-.354,5.286-.774,10.572-1.3,15.858,3.8.657,4.646,4.629,6.767,7.222,2.441,3.333,6.178,5.286,9.646,7.374.151-71.4-.034-142.807.1-214.2-1.246,1.128-3.72,3.417-4.966,4.545M428.8,220.171c-1.162,9.747-1.229,19.562-1.9,29.343,10.926.084,21.851-.017,32.777.067-.286-10.656,11.464-13.484,16.447-21.026-15.875-2.256-31.481-6.01-47.322-8.384m149.76,1.246c12.323,16.06,24.343,32.373,36.632,48.466,12.441.1,24.881.2,37.322-.067q.429-3.384.808-6.767l.875-.152c.774-6.33,5.034-11.5,11.448-12.727-7.155-9.73-14.394-19.393-21.818-28.922-21.767-.034-43.517-.2-65.267.168M460.25,249.985c2.441.2,4.9.4,7.374.623-.05-2.138-.084-4.259-.118-6.4,1.734,0,3.485,0,5.235.017.4.673,1.212,2,1.616,2.66-.707,1.279-1.4,2.576-2.087,3.855l6.3-.269c-2.66,6.01-12.828,8.215-15.353.943-.69.791-1.38,1.6-2.054,2.407,3.1,1.414,6.044,4.175,9.714,3.771,3.754-.556,6.919-3.114,9.023-6.2,3.771-5.522,9.259-9.495,13.771-14.36-4.949-2.744-9.831-5.623-14.848-8.215-6.532,6.751-17.255,10.724-18.568,21.161m52.557-10.673a94.631,94.631,0,0,1-17.693-1.364c-4.444,3.636-8.5,7.677-12.626,11.649,11.767-.135,23.535.1,35.3-.135-.051-6.65,0-13.3-.455-19.915a13.058,13.058,0,0,0-4.528,9.764m145.955-1.027a123.91,123.91,0,0,0,8.4,11.717c4.057.017,8.114.017,12.205.017-2.205-4.141-4.478-8.215-6.953-12.188-4.562.168-9.107.3-13.653.455M469.1,245.759c-.909,2.761,0,3.72,2.761,2.9q1.389-4.116-2.761-2.9m78.314,9.309c-.32,13.131-.05,26.3-.2,39.443,28.669.236,57.355-.556,86.007.37.1-1.532.3-4.6.4-6.145a49.975,49.975,0,0,1,7.862-11.75q-6.591-.2-13.165-.135c-1.162.017-3.485.051-4.646.051-2.374.034-4.747.118-7.1.219l-1.33-.354-1.3.454a24.3,24.3,0,0,0,.151-8.333l-1.111.185c-3.67-4.916-7.239-9.915-11.33-14.511-18.063.976-36.177-.135-54.241.505m-62.624,17.643c-3.434,2.626-7.273,4.882-9.882,8.4,3.771-1.515,7.037-3.99,10.353-6.3-.118-.522-.354-1.582-.471-2.1m130.669-1.448c.118,1.145.37,3.417.488,4.562,12.424.253,24.865.1,37.305.034-.151-1.111-.454-3.316-.606-4.427-12.39-.471-24.8-.1-37.187-.168m79.071,45.285a40.75,40.75,0,0,1-3.047,6.9q-13.434,23.055-26.683,46.244c2.761.051,5.5.135,8.283.236-1.111-2.222-2.205-4.427-3.266-6.65,6.9-11.128,13.249-22.592,19.7-33.989,2.239,3.417,4.36,6.885,6.582,10.32-.017-7.609,2.1-16.01-1.566-23.063M547.3,371.143c.067,13.165-.337,26.346.185,39.511,2.66,1.128,3.771-2.273,5.572-3.5,2.727-3.72,7.643-3.165,11.683-2.811,7.912,1.178,15.454,4.192,23.4,5.236,6.953-2.677,13.383-6.549,20.3-9.343l-.168-1.01c1.229.2,3.687.64,4.916.842,2.357-2.929,4.7-6.06,5.69-9.747,2.205-3.131,4.259-6.363,6.4-9.545l.253-5.3-2.458.455c.657-1.2,1.986-3.569,2.643-4.764q-39.216-.025-78.415-.017M652.819,390.6c-1.986.673-4.192,1.229-5.286,3.215-3.619,5.37-6.549,11.178-9.815,16.784,19.494-.152,39.005.1,58.5-.084.741-5.4.539-10.942-1.768-15.976-2.205.842-4.36,1.667-6.582,2.407l.758-1.347c-2.559-3.569-4.781-7.357-7.188-11.027-2.037-4.73-4.966-9.006-7.458-13.484-3.165-.219-6.313-.471-9.427-.926-3.922,6.8-7.811,13.636-11.734,20.437m-37.558,9.31c4.108,5.757,2.273,14.494,9.495,18.3,3.451-2.138,7.542-3.384,10.522-6.178,4.36-6.178,7.155-13.35,11.818-19.343.135-.909.387-2.727.522-3.636-7.222-3.569-14.074-7.828-20.976-11.969-1.162,8.535-7.979,15.05-11.38,22.828M408.13,392.607a76.524,76.524,0,0,1-4.108,9.411c8.956,3.771,17.912,7.559,26.75,11.6a133.533,133.533,0,0,0,7.693-14.461c-10.05-2.424-20.1-5.034-30.336-6.549M601.693,405.1c2.862.96,6.481.623,8.838,2.912-4.68-.572-9.192-2.306-13.956-2,.572,4.343,6.279,2.188,8.535,5.151-3.518-.589-6.9-1.734-10.387-2.34-2.643-.135-4.815,1.953-7.39,1.953-9.276-1.633-18.232-5.5-27.743-5.488-6.549.051-8.872,6.986-9.915,12.272,29.208,8.1,59.022,14.057,88.381,21.6-.051-8.8-.337-17.626-.4-26.43q-6.667,3.535-13.417,6.919c-2.626-2.828-6.347-5.37-6.683-9.562-.741-2.845-.488-6.2-2.593-8.485-4.714-2.492-9.36,1.2-13.266,3.5m-205.549,4.966a20.035,20.035,0,0,1,3.4,17.255c8.148,4.242,16.414,8.232,24.6,12.424,3.754,1.953,8.2,3.6,12.373,1.818,7.323-2.542,14.36-5.892,21.75-8.316-1.953-8.064-11.128-12.1-18.585-8.838-2.475,4.478-4.562,9.377-8.333,12.963,1.683-4.36,4.495-8.131,6.65-12.256-2.778-2.609-3.855-6.229-4.8-9.8-11.043-3.7-21.464-9.057-32.255-13.4-1.633,2.694-3.249,5.4-4.8,8.148M697.97,404c-2.576,5.219,5.5.623,0,0m-4.141,9.545c3.064.2,6.262.168,9.259,1.061-4.7.572-12.138-2.037-14.225,3.906,3.064.32,6.229.337,9.208,1.347-5.741.017-12.306-1.986-16.582,3.1-8.687.168-17.373-.354-26.026.219-6.868,1.347-10.084,8.569-9.461,15.016,5.32,1.229,10.825.875,16.245.875q40.226-.025,80.452-.017c-3.636-8.535-8-16.733-11.683-25.235-3.956,3-7.576,6.4-11.616,9.259-5.555-1.784-8.956-6.7-10.707-12.02-.842-3.687-5.32-3.03-8.148-3.6-2.188,2.071-4.478,4.074-6.717,6.094m-219.033-2.1c-.387,4.495-.623,9.006-.808,13.518a27.7,27.7,0,0,1,12.138,14.7c19.275.067,38.551.219,57.826.3-.118-4.007.791-9.074-3.384-11.414-5.4-1.734-11.111-2.138-16.683-3.013-2.576,4.04-4.9,8.333-8.249,11.818,1.532-4.528,4.747-8.182,7.07-12.306-3.653-5.421-8.064,1.481-12.407,2.1,1.852-2.441,5.926-3.1,6.869-6.027a46.529,46.529,0,0,1-6.65-9.528c-11.919-.067-23.821.337-35.723-.152m164.035.084c.152,8.569.236,17.171.539,25.74.892,3.552,3.35,7,7.576,6.481-3.5-7-2.374-17.845,5.875-20.807,9.023-2.525,18.585-.3,27.811-1.229,4.764-2.592,8.619-6.549,12.862-9.9C675.277,411.158,657.045,411.7,638.83,411.529Z" transform="translate(9975 1008.019)"/>
    <path id="Path_3224" data-name="Path 3224" d="M589.611,159.752c2.037-2.559,5.3-3.333,8.417-3.552-4.023,2.525-10.151,4.108-10.168,9.932-.875,4.242,2.29,7.306,4.562,10.437C585.84,174.112,584.527,164.331,589.611,159.752Z" transform="translate(10115.445 1078.858)" fill="#020202"/>
    <path id="Path_3225" data-name="Path 3225" d="M526.59,168.406c.387-4.192,7.862-4.242,8.316-.034,1.044,2.98-2.407,4.276-4.091,6.027-1.785-1.683-5.2-2.98-4.225-5.993m2.542-1.01c-2.862,2.289,1.784,6.5,3.788,3.434C535.024,168.473,531.27,165.342,529.132,167.4Z" transform="translate(10074.379 1085.036)" fill="#020202"/>
    <path id="Path_3227" data-name="Path 3227" d="M407.39,280.677a23.257,23.257,0,0,1,7.525-7.407A21.708,21.708,0,0,1,407.39,280.677Z" transform="translate(9993.029 1158.87)" fill="#020202"/>
    <path id="Path_3228" data-name="Path 3228" d="M466.76,52.569c64.527.168,129.087-.354,193.613.269-.673.556-2.037,1.667-2.71,2.222-63.3-.017-126.612.152-189.91-.067C467.5,54.387,467.012,53.175,466.76,52.569Z" transform="translate(10033.605 1008)"/>
    <path id="Path_3229" data-name="Path 3229" d="M583.029,52.71c.741,41.11-.017,82.27.37,123.4.118,1.919.286,3.838.539,5.741-.875.892-1.734,1.8-2.576,2.71-.471,5.943,1.5,11.515,3.2,17.1-.454,2.694-1.01,5.37-1.515,8.064,1.633,1.178,3.283,2.374,4.9,3.619l-3.838.471-3.434-.808c-1.027-7.222-.522-14.494-.236-21.733-1.01-27.508-.151-55.049-.454-82.573.236-17.929-.4-35.857.337-53.769C580.992,54.377,582.356,53.266,583.029,52.71Z" transform="translate(10110.95 1008.128)"/>
    <path id="Path_3235" data-name="Path 3235" d="M469.569,54.8c61.951-.152,123.935-.32,185.886.067.555,32.1-.084,64.224.337,96.327.152,5-.05,10.168-2.525,14.663a26.9,26.9,0,0,0-15.235-15.286c-.135-4.512-.219-9.006-.286-13.518-4.057-.269-8.6.892-12.34-.673-3.468-5.37-6.818-10.942-11.986-14.882,8.1-1.448,16.346-.96,24.545-.859q-.076-20.656-.051-41.312-75.376-.3-150.736-.084-.379,20.959,0,41.918c7.34.135,14.663.084,22,.1-2.778,5.269-4.629,11.464-8.922,15.69-4.31.354-8.636.118-12.946.067q-.328,4.874-.69,9.747c-6.161-5.1-12.037-10.656-18.973-14.713a19.043,19.043,0,0,0,1.734-7.879C469.434,101.06,468.946,77.913,469.569,54.8Z" transform="translate(10034.214 1009.44)" fill="#f8fcfe"/>
    <path id="Path_3237" data-name="Path 3237" d="M479.9,69.855c20.723-.32,41.463.034,62.187-.034-.421,2.34-.842,4.68-1.279,7.02-2.727-.337-6.111-2.155-8.468.067-1.532,3.266-1.8,6.936-2.34,10.471-1.633.707-4.9,2.138-6.549,2.845-.017-1.01-.067-3.047-.084-4.074-.808.118-2.424.32-3.232.438-.37.842-1.094,2.542-1.465,3.4-.724-.152-2.138-.438-2.862-.589.926-4.73,3.182-9.68,2-14.562-1.885-2.374-5.926-3.081-8-.606-1.9,4.326-2.862,8.99-4.31,13.468l-1.313-.589a27.236,27.236,0,0,0-6.852-2.054,88.348,88.348,0,0,0,1.515,12.979c-1.229,3.956-.522,8.013,1.111,11.767-6.717-.135-13.417-.051-20.117-.135-.135-13.266-.286-26.548.051-39.814m7.559,10.572c.118,7.643-.135,15.3.269,22.945a33.347,33.347,0,0,0,4.815-.623c1.094-7.39.152-14.915.572-22.356C491.216,80.394,489.33,80.41,487.461,80.427Z" transform="translate(10042.449 1019.753)" fill="#f1fafd"/>
    <path id="Path_3238" data-name="Path 3238" d="M527.777,69.83c26.262-.034,52.523-.185,78.8.084.034,13.148.034,26.3.067,39.443-8.653-.286-17.289.286-25.925.185-10.959-6.145-25.706-7.205-36.615-.471-10.639,1.077-21.363-.455-32.036.152q7.576-7.98,14.932-16.161,1.035,4.7,2.054,9.41c1.279.034,3.821.118,5.084.168a106.429,106.429,0,0,0-.959-16.531c2.492-2.879,5.2-5.724,6.751-9.259-.909-1.549-1.566-3.855-3.518-4.293-3.6-1.212-6.061,2.508-8.7,4.158.017-1.717.051-5.168.067-6.885M549.493,80.3c0,7.559-.219,15.134.438,22.676,1.313-.3,3.956-.909,5.269-1.2-.168-7.087-.168-14.175.067-21.245-1.936-.084-3.855-.168-5.774-.236m21.195-.253c-.337,7.525-.354,15.067.034,22.592,1.33-.051,3.956-.135,5.269-.185.219-7.374.236-14.764-.1-22.137l-5.2-.269M539.14,85.4c-.084,5.757-.118,11.5-.1,17.255,1.263-.067,3.788-.2,5.05-.286.825-5.69.454-11.447.236-17.171l-5.185.2m21.127-.337c-.236,5.707-.269,11.431-.067,17.154l5.387-.269c-.034-5.5-.051-11.01-.084-16.515-1.3-.084-3.922-.286-5.235-.37m20.791.2q.025,8.586.034,17.171c1.33.051,3.973.168,5.286.219a138.082,138.082,0,0,0-.068-17.508c-1.313.034-3.939.084-5.252.118m10.471.1c0,5.64.034,11.3.017,16.935,1.768.1,4.495,2.037,5.421-.505.556-5.4.185-10.858.3-16.3C595.35,85.452,593.431,85.4,591.529,85.368Z" transform="translate(10064.573 1019.779)" fill="#f1fafd"/>
    <path id="Path_3240" data-name="Path 3240" d="M521.944,73.472c2.542-3.013,7.879-.522,6.363,3.451A191.839,191.839,0,0,1,524.369,96.4c.354.017,1.077.067,1.431.1.32-1.97.673-3.922,1.044-5.892,5.185-.623,10.387-1.38,15.218-3.5.808,7.929-4.848,13.282-9.663,18.6,3.586-1.734,6.3-4.832,8.417-8.148,4.225-6.767.118-15.572,4.461-22.306,2.693-.791,5.269.286,4.882,3.434.438,7.71.64,15.538-.993,23.147-4.377,5.707-9.815,10.555-14.09,16.346a188.544,188.544,0,0,0-7.744,18.232,159.1,159.1,0,0,0-8.485,19.9c-3.148,6.464-5.707,13.3-9.175,19.562-3.064-3.03-2.1-9.343-3.771-13.518-5.185,4.209-9.932,8.956-15.471,12.71-2.424-2.98-4.882-5.959-7.357-8.889,4.882-4.444,10.067-8.569,14.9-13.08-4.529-1.515-8.905-3.922-13.636-4.545-5.488,4.562-10.841,9.293-16.212,13.989-1.717-1.6-3.417-3.2-5.135-4.8,7.71-6.448,15.606-12.66,23.063-19.393,2.9,2.256,5.741,4.562,8.569,6.9,5.892-10.892,11.868-21.75,17.609-32.726,2.306-3.451-.875-6.868-1.448-10.3-.421-4.865,3.1-8.687,5.185-12.744C519.082,84.617,520.093,78.859,521.944,73.472Z" transform="translate(10031.029 1021.405)" fill="#f8fcfe"/>
    <path id="Path_3241" data-name="Path 3241" d="M516.985,93.979c9.074-.64,18.215-.185,27.306.219-4.074,5.4-9.461,9.814-12.289,16.127-9.074.152-18.148.067-27.221.051C506.665,103.609,511.783,98.424,516.985,93.979Z" transform="translate(10059.591 1036.116)" fill="#f8fcfe"/>
    <path id="Path_3242" data-name="Path 3242" d="M480.106,104.418c4.04-.084,8.081-.084,12.138-.034-3.047,5.673-6.145,11.313-9.04,17.053C477.092,117.9,480.342,110.057,480.106,104.418Z" transform="translate(10042.279 1043.421)" fill="#f1fafd"/>
    <path id="Path_3244" data-name="Path 3244" d="M403.711,124.03c9.663,1.97,18.972,5.286,28.433,8.03-1.717,2.795-3.4,5.606-5.017,8.451-7-1.616-13.636-4.411-20.605-6.128a10.136,10.136,0,0,0,3.922,2.289q31.186,9.949,62.405,19.882c9.427.791,18.518-5.37,28.029-2.205l-1.212,2.172c-.808.269-2.407.825-3.215,1.094,5.522,3.485,11.565,6.145,16.75,10.134-.084,1.01-.269,3-.354,3.99-3.67.354-6.549-2.643-9.815-3.855,2.929,4.377,10.959,4.478,9.949,10.993-4.427.337-7.811-2.912-11.7-4.411,2.273,2.694,5.909,3.838,7.929,6.784-2.508,6.01-8.114-.606-11.9-1.616,2.172,3.973,10.555,4.31,8.67,9.714-4.882.269-9.932-1.01-14.915-.808-6.852-2.626-12.357-8.3-19.73-9.6-20.942-3.72-41.817-7.794-62.725-11.666-5.05-.892-10.841-1.2-14.528-5.236-4.865-4.293-5.589-12.07-2.306-17.508C395.63,137.632,400.091,131.067,403.711,124.03Z" transform="translate(9980.985 1056.872)" fill="#f8fcfe"/>
    <path id="Path_3245" data-name="Path 3245" d="M497.646,128.43c2.71.017,5.438.051,8.182.118,3.956,5.387,9.074,10.084,15.521,12.239,13.114,3.973,27.053,1.549,40.5,2.828-7.1,1.852-14.511,1.347-21.767,1.347-17.255-.236-34.528.32-51.766-.421q2.853-2.98,5.64-6.044C494.986,135.063,496.3,131.73,497.646,128.43Z" transform="translate(10048.341 1059.879)" fill="#f8fcfe"/>
    <path id="Path_3246" data-name="Path 3246" d="M590.546,129.53l2.559,1.212c1.465,10.875-.32,21.9.892,32.81-5.724,4.73-11.548,9.309-17.138,14.191-2.643-10.993-.37-22.457-1.027-33.652-5.774-.135-11.919,1.229-17.323-1.38,7.458-.539,15.235-.084,22.356-2.795C585.546,138.166,588.24,133.671,590.546,129.53Z" transform="translate(10096.313 1060.631)" fill="#f8fcfe"/>
    <path id="Path_3247" data-name="Path 3247" d="M540.2,139.486c.421-2.492-1.986-6.8,1.936-7.306l3.047,2.643c.909,3.754,1.5,7.626,3.047,11.195,1.97,4.225,6.161,6.734,10.1,8.905-4.377-4.074-9.124-8-11.279-13.787,4.276.118,8.586.236,12.9.421,1.077,1.8,2.205,3.6,3.367,5.37-.757-2.289-1.582-4.579-2.357-6.852a83.2,83.2,0,0,1,9.141.522c5.808,4.444,3.249,12.761,5.421,18.939-5.135,2.172-10.286,4.31-15.37,6.582-5.707-5.219-12.845-8.872-17.424-15.235C542.021,147.045,541.044,143.274,540.2,139.486Z" transform="translate(10083.561 1062.442)" fill="#f8fcfe"/>
    <path id="Path_3248" data-name="Path 3248" d="M479.891,145.871c3.889-3.266,7.626-7.677,13.232-7.323,25.336.943,50.79-.051,76.058.455,8.468,5.454,16.161,12.037,24.259,18.047a84.6,84.6,0,0,0-.741,15.168c2.121-1.111,4.225-2.256,6.313-3.451,1.734,3.131,3.586,6.212,5.337,9.343-4.781,0-9.663.926-14.394,0a49.1,49.1,0,0,1-4.192-5.151,31.1,31.1,0,0,0,1.263-17.693c-1.515-.892-3.114-1.65-4.68-2.374-.505,4.427-1.027,8.872-1.616,13.3-1.162-1.549-2.323-3.081-3.468-4.613q-.126-6.742-.3-13.484c-1.616.219-3.2.505-4.781.842a67.932,67.932,0,0,0-.926,11.111c-1.077-.135-3.232-.387-4.31-.505-1.111-2,.051-6.936-3.451-6.178-2.374,1.229-2.155,4.343-3.114,6.481l-4.192-.067q-.076-5.379-.135-10.791c-1.364,0-4.108-.017-5.488-.017-.034,3.586-.051,7.188-.051,10.774-1.2.084-3.6.219-4.8.286-.118-1.465-.337-4.394-.455-5.858-1.111-.034-3.316-.067-4.427-.084-.572,2.323-1.145,4.646-1.7,6.969-5.842-1.448-3.485-8.249-4.141-12.66-1.818-.067-3.619-.135-5.4-.185-.084,3.889-.185,7.794-.252,11.683-1.246-.051-3.737-.168-4.983-.219-.084-1.431-.236-4.31-.32-5.741-1.212.067-3.636.185-4.848.253-.084,1.431-.269,4.276-.354,5.707-1.212-.017-3.67-.067-4.882-.084q-.025-5.379-.034-10.74c-1.38-.017-4.141-.034-5.522-.034,0,4.158-.034,8.333.2,12.491,4.023,5.69,8.754,10.858,12.575,16.717q-20.656.2-41.312.034c-.168-10.808.034-21.6.034-32.406m7.828,2.559c-.455,7.592-.269,15.185-.3,22.777,1.885-.084,3.771-.152,5.656-.236-.168-7.458-.034-14.9-.32-22.356-1.7-.067-3.367-.118-5.033-.185m10.589,5.438a98.546,98.546,0,0,0,.051,17.407c1.229-.051,3.67-.185,4.9-.236.084-5.589.1-11.178.1-16.767Z" transform="translate(10042.512 1066.78)" fill="#f1fafd"/>
    <path id="Path_3249" data-name="Path 3249" d="M560.44,138.73c4.36.1,8.72.084,13.1.084-.017,9.175.1,18.35-.337,27.524-4.31-3.67-4.478-12.609-11.111-12.828A85.462,85.462,0,0,1,560.44,138.73Z" transform="translate(10097.631 1066.918)" fill="#f8fcfe"/>
    <path id="Path_3251" data-name="Path 3251" d="M468.58,147.279c2.694-2.323,5.286-4.747,7.828-7.239,3.468.859,6.885,1.97,10.269,3.114-.151,11.7-.168,23.4-.151,35.1,14.377.168,28.8-.337,43.164.2,4.343,4.831,7.929,10.286,11.8,15.488-18.3.859-36.615-.185-54.931.471-.185,13.754.034,27.524-.168,41.278,22.339-.387,44.7.05,67.035-.236a130.435,130.435,0,0,1,19.68.993c.993,5.387,3.6,10.235,6.481,14.848-31.194.118-62.389-.505-93.566.32-.168,14.343-.354,28.686.118,43.029,29.78.118,59.594.505,89.357-.2-2.357-2.256-5.589-2.087-8.552-2.1-26.312.236-52.625-.084-78.937.168-.236-12.155-.034-24.309-.067-36.464,25.218-.337,50.436-.034,75.654,0,6.044.084,12.188.37,18.08-1.246q1.869,3.308,3.737,6.65c-2.037.118-4.057.253-6.06.387,0,7.912-1.094,16.043,1.364,23.737-4.68,8.5-9.848,16.7-14.309,25.3-26.6-1.263-53.281-.152-79.913-.606-.017,13.653-.051,27.306.017,40.975,6.313.269,2.121,6.06.741,9.242,4.8,4.8,9.545,9.7,14.7,14.124,3.821,1.9,8.232,2.323,12.188,3.939-8.266,4.73-18.03,2.34-27.036,2.525l-1.465-.067c-.471-4.04.875-9.074-2.727-12.037-2.542-3.131-6.835-2.727-10.421-3.182l-.522-.774c-1.061-1.6-2.121-3.182-3.165-4.764-.32-70.957.084-141.932-.219-212.889v-.084m26.514,114.458c.034,7.508.051,15.033-.067,22.541,1.869,0,3.754,0,5.64.017-.067-7.525-.051-15.05-.034-22.575-1.869,0-3.7,0-5.539.017m21.346-.1a128.844,128.844,0,0,0,0,22.794c1.229.017,3.653.017,4.865.017a156.764,156.764,0,0,0-.017-22.844c-1.212.017-3.636.017-4.848.034m20.757.017q-.152,11.313.017,22.642c1.852-.017,3.72-.017,5.606-.017-.067-7.525-.034-15.05-.1-22.575-1.852-.017-3.687-.051-5.522-.051m21.279-.034a134.1,134.1,0,0,0-.1,22.962c1.3-.017,3.889-.084,5.185-.1a128.468,128.468,0,0,0-.152-22.76c-1.229-.034-3.7-.084-4.932-.1m-31.615,4.714a114.687,114.687,0,0,0-.118,18c1.246.051,3.737.168,4.983.219a117.714,117.714,0,0,0,.353-15.016c.741-3.283-3.384-2.576-5.219-3.2m20.774,1.094c-.017,5.69.1,11.363.471,17.036h4.932c.185-5.993.168-12-.051-17.979-1.8.3-3.586.623-5.353.943m21.346-.673q-.379,8.788-.05,17.609l4.832.135a65.554,65.554,0,0,0-.067-17.878l-4.714.135m-63.028.572a96.738,96.738,0,0,0,.118,17.1c1.212-.017,3.653-.084,4.865-.118.034-5.572.084-11.128.152-16.7C509.808,267.544,507.232,267.393,505.953,267.326Z" transform="translate(10034.85 1067.814)" fill="#f8fcfe"/>
    <path id="Path_3257" data-name="Path 3257" d="M546,163.065c4.545-.152,9.091-.286,13.653-.455,2.475,3.973,4.747,8.047,6.953,12.188-4.091,0-8.148,0-12.2-.017A123.91,123.91,0,0,1,546,163.065Z" transform="translate(10087.763 1083.239)" fill="#f8fcfe"/>
    <path id="Path_3258" data-name="Path 3258" d="M547.776,175.242c10.336-9.326,24.915-2.34,37.137-2.424-.185,6.178,1.229,12.777-1.464,18.6a5.211,5.211,0,0,1-2.946-2.912c-.774,2.71-3.535,3.249-5.976,3.485-7.912.572-16.835-2.273-24.006,1.869-1.987,1.835-5.1,5.454-6.885,1.128.993-4.091,5.134-8.4,9.714-7.929,2.424-.2,5.033.051,7.289-1.094-3.619-.219-7.34-.64-10.875.269-2.559,1.5-4.815,3.468-7.222,5.168.421-9.663,10.976-10.017,18.131-11.111-5.808-.084-12.087-.354-16.868,3.636,1.683-8.081,10.926-6.7,16.9-8.569C556.395,175.225,552.068,175.36,547.776,175.242Z" transform="translate(10085.397 1088.552)" fill="#f8fcfe"/>
    <path id="Path_3259" data-name="Path 3259" d="M479.942,173.055c18.063-.64,36.177.471,54.241-.505,4.091,4.6,7.66,9.6,11.33,14.511-1.869.286-3.7.606-5.555.909q-.278,8.409-.3,16.818c1.8.135,3.6.286,5.438.438a62.887,62.887,0,0,1,1.38-10.017l1.3-.454,1.33.354a52.793,52.793,0,0,1,2.037,9.983c1.229.034,3.67.118,4.9.168q.076-5.2.168-10.37c1.162,0,3.485-.034,4.646-.051q.177,4.924.387,9.848l4.512,1.01.4,1.027c-.1,1.549-.3,4.613-.4,6.145-28.652-.926-57.338-.135-86.007-.37.151-13.148-.118-26.312.2-39.443m7.744,9.444c-.32,7.542-.219,15.084-.269,22.642,1.9-.084,3.8-.168,5.741-.236-.269-7.424-.067-14.865-.3-22.289-1.734-.034-3.451-.084-5.168-.118m42.069-.253c-.387,7.576-.236,15.168-.253,22.76,1.869-.034,3.754-.051,5.656-.067-.2-7.39.556-14.848-.4-22.2-1.667-.219-3.333-.37-5-.488m-21.077.774a206.63,206.63,0,0,0-.051,22.137l5.168-.135c.37-7.34.337-14.7.067-22.036-1.3.017-3.889.034-5.185.034m-10.841,4.629c-.168,5.741-.236,11.481-.236,17.238,1.9.067,3.8.152,5.724.236a155.918,155.918,0,0,0-.32-17.744c-1.734.084-3.451.168-5.168.269m21.5-.758A115.841,115.841,0,0,0,519,205.142c1.3.067,3.855.236,5.151.32.32-5.757.758-11.565,0-17.289A22.841,22.841,0,0,0,519.335,186.893Z" transform="translate(10042.477 1090.032)" fill="#f1fafd"/>
    <path id="Path_3265" data-name="Path 3265" d="M567.98,212.1c.842-1.683,2.525-5.033,3.367-6.717l1.145.892,3.03,2.694c3.8.118,7.626.2,11.448.32.05,16.986.69,34.056-.337,50.992-.589.741-1.784,2.239-2.39,2.98-4.848-8.889-10.808-17.222-14.764-26.531-.32-8.114,1.364-16.313-.791-24.326l3.788-1.145C571.347,211.457,569.108,211.878,567.98,212.1Z" transform="translate(10102.784 1112.47)" fill="#f8fcfe"/>
    <path id="Path_3271" data-name="Path 3271" d="M479.825,241.806q39.216-.05,78.415.017c-.657,1.2-1.986,3.569-2.643,4.764l2.458-.455q-.126,2.651-.253,5.3c-2.441-1.027-4.9-2.02-7.34-2.98.253,4.175.64,8.333.943,12.525-.993,3.687-3.333,6.818-5.69,9.747-.286-5.471-.252-10.942-.168-16.43-1.986.034-3.973.084-5.943.118a74.567,74.567,0,0,0,1.2,15.471l.168,1.01c-6.919,2.794-13.35,6.667-20.3,9.343-7.946-1.044-15.488-4.057-23.4-5.236-4.04-.354-8.956-.909-11.683,2.811-1.8,1.229-2.912,4.629-5.572,3.5-.522-13.165-.118-26.346-.185-39.511m7.592,7.525q.1,11.313-.017,22.626c1.885-.017,3.771-.017,5.656-.017-.118-7.508-.067-15.033.017-22.541-1.9-.034-3.788-.051-5.656-.067m21.363-.118a143.839,143.839,0,0,0,.034,22.693l4.831.135a158.226,158.226,0,0,0,0-22.777c-1.212-.017-3.636-.034-4.865-.051m20.723.034c.067,7.66-.017,15.336.051,23,1.885-.572,3.788-1.128,5.707-1.7-.185-7.07-.168-14.141-.017-21.211-1.936-.034-3.838-.051-5.741-.084m-31.969,5.3c.135,5.791.168,11.582.151,17.373,1.852-.034,3.72-.067,5.606-.084q.126-8.788.084-17.558c-1.953.084-3.906.168-5.842.269m21.5-.3a150.759,150.759,0,0,0,.067,17.659l4.916.135a87.746,87.746,0,0,0,.1-17.962C522.854,254.129,520.312,254.2,519.032,254.247Z" transform="translate(10042.477 1137.355)" fill="#f8fcfe"/>
    <path id="Path_3272" data-name="Path 3272" d="M548.6,261.657c3.922-6.8,7.811-13.636,11.734-20.437,3.114.455,6.262.707,9.427.926,2.492,4.478,5.421,8.754,7.458,13.484-.084,5.858-.353,11.717-.2,17.575,2.9-.825,5.606-2.155,6.633-5.2,2.222-.741,4.377-1.566,6.582-2.407,2.306,5.034,2.508,10.572,1.768,15.976-19.494.185-39.005-.067-58.5.084,3.266-5.606,6.2-11.414,9.815-16.784,1.094-1.986,3.3-2.542,5.286-3.215m7.946-10.387c-1.38,6.986-.892,14.175-.32,21.245,1.229-.034,3.67-.084,4.9-.118a134,134,0,0,0-.1-22.659,3.327,3.327,0,0,0-4.478,1.532m9.966,3.35c-.151,5.909-.1,11.818.236,17.71,1.145.034,3.468.118,4.613.151a77.155,77.155,0,0,0,.168-17.845c-1.246,0-3.771,0-5.017-.017M545.52,265.613a36.3,36.3,0,0,0-.471,6.2c1.869.236,3.737.488,5.623.741.084-3.316.185-6.616.269-9.915C549.106,263.593,547.254,264.5,545.52,265.613Z" transform="translate(10079.219 1136.965)" fill="#f1fafd"/>
    <path id="Path_3274" data-name="Path 3274" d="M520.16,268.158c3.4-7.778,10.219-14.293,11.38-22.828,6.9,4.141,13.754,8.4,20.976,11.969-.135.909-.387,2.727-.522,3.636-4.663,5.993-7.458,13.165-11.818,19.343-2.98,2.794-7.07,4.04-10.521,6.178C522.433,282.652,524.268,273.915,520.16,268.158Z" transform="translate(10070.102 1139.774)" fill="#f8fcfe"/>
    <path id="Path_3275" data-name="Path 3275" d="M567.49,259.771c6.01-3.5,11.936-7.155,18.232-10.118l1.364-1.044,1.532.135c-.3.859-.926,2.542-1.246,3.4,3.35,9.8,10.017,18.114,14.73,27.305-3.518,2.795-7,5.606-10.4,8.535a19.439,19.439,0,0,1-9.326-11.043c-1.077-4.04-6.077-3.586-8.653-6.077C571.278,267.38,569.51,263.492,567.49,259.771Z" transform="translate(10102.449 1142.016)" fill="#f8fcfe"/>
    <path id="Path_3277" data-name="Path 3277" d="M439.67,260.665a12.079,12.079,0,0,1,4.7-3.821c7.289-.572,14.629-.118,21.952.034a28.893,28.893,0,0,0,2.475,7.98c-.067,2.071-.135,4.158-.185,6.246-10.1.269-20.218.337-30.319.084A71.141,71.141,0,0,1,439.67,260.665Z" transform="translate(10014.148 1147.451)" fill="#f8fcfe"/>
    <path id="Path_3278" data-name="Path 3278" d="M534.16,265.81c18.215.168,36.447-.37,54.662.286-4.242,3.35-8.1,7.306-12.862,9.9-9.225.926-18.787-1.3-27.811,1.229-8.249,2.963-9.377,13.8-5.875,20.807-4.225.522-6.683-2.929-7.576-6.481C534.4,282.981,534.312,274.379,534.16,265.81Z" transform="translate(10079.67 1153.737)" fill="#f8fcfe"/>
    <path id="Path_3282" data-name="Path 3282" d="M520.94,86.423c2.071-2.306,4.108-4.646,6.178-6.953A106.436,106.436,0,0,1,528.078,96c-1.263-.051-3.8-.135-5.084-.168Q521.984,91.111,520.94,86.423Z" transform="translate(10070.635 1026.417)" fill="#77c9ea"/>
    <path id="Path_3288" data-name="Path 3288" d="M475.245,131.2c4.882-4.444,10.067-8.535,14.932-13,3.535,1.111,7.07,2.256,10.623,3.35-3.8,5.168-9.478,8.451-13.922,13.013,3.283,3.2,5.4,8.569,9.882,10,5.034-3.451,9.225-7.946,14.192-11.5.656,4.124,1.212,8.283,1.465,12.457-.673.354-2.054,1.044-2.727,1.4l.724,2.66c-5.5-1.061-8.67,5.589-13.03,8.013-3.771-1.38-7.474-3.114-11.431-3.838-6.464,4.545-11.75,10.538-17.457,15.959a142.661,142.661,0,0,1-13.434-7.845c7.39-5.656,14.427-11.75,21.683-17.558A87.859,87.859,0,0,0,475.245,131.2Z" transform="translate(10025.609 1052.887)" fill="#ff9d00"/>
    <path id="Path_3292" data-name="Path 3292" d="M428.08,178.421c1.313-10.437,12.037-14.41,18.568-21.161,5.017,2.593,9.9,5.471,14.848,8.215-4.512,4.865-10,8.838-13.771,14.36-2.1,3.081-5.269,5.64-9.023,6.2-3.67.4-6.616-2.357-9.714-3.771.673-.808,1.364-1.616,2.054-2.407,2.525,7.272,12.693,5.067,15.353-.943l-6.3.269c.69-1.279,1.38-2.576,2.087-3.855-.4-.657-1.212-1.986-1.616-2.66-1.751-.017-3.5-.017-5.235-.017.034,2.138.067,4.259.118,6.4C432.979,178.825,430.521,178.623,428.08,178.421Z" transform="translate(10007.17 1079.583)" fill="#ff9d00"/>
    <path id="Path_3293" data-name="Path 3293" d="M623.409,169.87a20.6,20.6,0,0,1-13.333,25.067c-.69-4.158-1.5-8.687.926-12.491,2.087-4.8,7.188-6.784,11.33-9.394C622.6,172.26,623.14,170.678,623.409,169.87Z" transform="translate(10131.073 1088.201)" fill="#f1fafd"/>
    <path id="Path_3295" data-name="Path 3295" d="M503.482,181.07a22.841,22.841,0,0,1,4.815,1.279c.758,5.724.32,11.532,0,17.289-1.3-.084-3.855-.253-5.151-.32A115.841,115.841,0,0,1,503.482,181.07Z" transform="translate(10058.33 1095.855)" fill="#77c9ea"/>
    <path id="Path_3298" data-name="Path 3298" d="M520.94,186.039c2.357-.1,4.73-.185,7.1-.219q-.1,5.177-.168,10.37c-1.229-.051-3.67-.135-4.9-.168A52.793,52.793,0,0,0,520.94,186.039Z" transform="translate(10070.635 1099.102)" fill="#77c9ea"/>
    <path id="Path_3301" data-name="Path 3301" d="M522.2,212.26c1.229.017,3.7.067,4.932.1a128.468,128.468,0,0,1,.152,22.76c-1.3.017-3.889.084-5.185.1A134.1,134.1,0,0,1,522.2,212.26Z" transform="translate(10071.125 1117.172)" fill="#77c9ea"/>
    <path id="Path_3303" data-name="Path 3303" d="M503.368,215.06c1.835.623,5.959-.084,5.219,3.2a117.714,117.714,0,0,1-.353,15.016c-1.246-.051-3.737-.168-4.983-.219A114.687,114.687,0,0,1,503.368,215.06Z" transform="translate(10058.343 1119.086)" fill="#77c9ea"/>
    <path id="Path_3307" data-name="Path 3307" d="M503.172,249.258c1.279-.051,3.821-.118,5.084-.168a87.75,87.75,0,0,1-.1,17.962l-4.916-.135A150.759,150.759,0,0,1,503.172,249.258Z" transform="translate(10058.337 1142.344)" fill="#77c9ea"/>
    <path id="Path_3312" data-name="Path 3312" d="M519.795,70.23c.943.017,2.794.034,3.72.051l1.212,1.33c0,6.616-2.424,12.963-2.205,19.612h-1.4c.118.859.387,2.576.505,3.451q-3.359,3.611-6.65,7.306C516.9,91.425,514.256,80.011,519.795,70.23Z" transform="translate(10066.562 1020.102)" fill="#dbdee5"/>
    <path id="Path_3320" data-name="Path 3320" d="M527.258,72.716c2.289-2.727,7.256,1.532,5.151,4.276-2.795,4.023-6.65,7.205-9.276,11.363-.976-1.01-1.953-2.02-2.929-3.013A13.865,13.865,0,0,1,527.258,72.716Z" transform="translate(10070.125 1021.202)" fill="#dcdfe4"/>
    <path id="Path_3321" data-name="Path 3321" d="M484.31,76.094c1.869-.017,3.754-.034,5.656-.034-.421,7.441.522,14.966-.572,22.356a33.347,33.347,0,0,1-4.815.623C484.175,91.4,484.428,83.737,484.31,76.094Z" transform="translate(10045.601 1024.087)" fill="#ff9d00"/>
    <path id="Path_3324" data-name="Path 3324" d="M490.18,78.83a27.236,27.236,0,0,1,6.852,2.054l1.279.825c-2.256,3.333-4.36,6.767-6.616,10.1A88.348,88.348,0,0,1,490.18,78.83Z" transform="translate(10049.612 1025.98)" fill="#02a9dd"/>
    <path id="Path_3325" data-name="Path 3325" d="M559.27,79.03c1.9.034,3.821.084,5.741.135-.118,5.438.253,10.892-.3,16.3-.926,2.542-3.653.606-5.421.505C559.3,90.326,559.27,84.67,559.27,79.03Z" transform="translate(10096.832 1026.116)" fill="#ff9d00"/>
    <path id="Path_3329" data-name="Path 3329" d="M484.627,144.41c1.667.067,3.333.118,5.033.185.286,7.458.152,14.9.32,22.356-1.885.084-3.771.151-5.656.236C484.358,159.595,484.172,152,484.627,144.41Z" transform="translate(10045.604 1070.8)" fill="#77c9ea"/>
    <path id="Path_3331" data-name="Path 3331" d="M541.366,147.06c1.566.724,3.165,1.481,4.68,2.374a31.1,31.1,0,0,1-1.263,17.693c-1.683-2.256-3.35-4.512-5.033-6.767C540.339,155.932,540.861,151.487,541.366,147.06Z" transform="translate(10083.491 1072.611)" fill="#ff9d00"/>
    <path id="Path_3333" data-name="Path 3333" d="M484.569,178.46c1.717.034,3.434.084,5.168.118.236,7.424.034,14.865.3,22.289-1.936.067-3.838.151-5.741.236C484.35,193.544,484.249,186,484.569,178.46Z" transform="translate(10045.594 1094.072)" fill="#77c9ea"/>
    <path id="Path_3336" data-name="Path 3336" d="M484.357,212.337c1.835-.017,3.67-.017,5.539-.017-.017,7.525-.034,15.05.034,22.575-1.885-.017-3.771-.017-5.64-.017C484.408,227.37,484.391,219.845,484.357,212.337Z" transform="translate(10045.587 1117.213)" fill="#02a9dd"/>
    <path id="Path_3337" data-name="Path 3337" d="M509.368,212.28c1.835,0,3.67.034,5.522.051.067,7.525.034,15.05.1,22.575-1.885,0-3.754,0-5.606.017Q509.233,223.584,509.368,212.28Z" transform="translate(10062.68 1117.186)" fill="#77c9ea"/>
    <path id="Path_3340" data-name="Path 3340" d="M484.307,246.27c1.869.017,3.754.034,5.656.067-.084,7.508-.135,15.033-.017,22.541-1.885,0-3.771,0-5.656.017Q484.391,257.583,484.307,246.27Z" transform="translate(10045.587 1140.416)" fill="#ff9d00"/>
    <path id="Path_3341" data-name="Path 3341" d="M509.3,246.22c1.9.034,3.8.051,5.741.084-.152,7.07-.168,14.141.017,21.211-1.919.572-3.821,1.128-5.707,1.7C509.283,261.556,509.367,253.88,509.3,246.22Z" transform="translate(10062.68 1140.382)" fill="#ff9d00"/>
    <path id="Path_3342" data-name="Path 3342" d="M559.57,249.78c2.407,3.67,4.63,7.458,7.188,11.027L566,262.153c-1.027,3.047-3.737,4.377-6.633,5.2C559.217,261.5,559.486,255.638,559.57,249.78Z" transform="translate(10096.868 1142.815)" fill="#ff9d00"/>
    <path id="Path_3345" data-name="Path 3345" d="M534.314,76.02c1.919.067,3.838.152,5.774.236-.236,7.07-.236,14.158-.067,21.245-1.313.286-3.956.892-5.269,1.2C534.1,91.154,534.314,83.579,534.314,76.02Z" transform="translate(10079.752 1024.059)" fill="#77c9ea"/>
    <path id="Path_3346" data-name="Path 3346" d="M546.993,75.87l5.2.269c.337,7.374.32,14.764.1,22.137-1.313.05-3.939.135-5.269.185C546.64,90.937,546.657,83.395,546.993,75.87Z" transform="translate(10088.268 1023.957)" fill="#77c9ea"/>
    <path id="Path_3347" data-name="Path 3347" d="M547.553,247.945a3.327,3.327,0,0,1,4.478-1.532,133.992,133.992,0,0,1,.1,22.659c-1.229.034-3.67.084-4.9.118C546.661,262.119,546.172,254.931,547.553,247.945Z" transform="translate(10088.213 1140.291)" fill="#02a9dd"/>
    <path id="Path_3348" data-name="Path 3348" d="M435.54,92.867c.387-5.471,1.212-10.993,3.569-16.01,1.566-.034,4.714-.084,6.279-.118,4.074,5.943,3.4,13.3,4.091,20.134,1.8.084,5.421.286,7.222.37-.37-1.751-1.111-5.269-1.481-7.02a37.745,37.745,0,0,1,2.121,7.811q-5.858-.177-11.649-.758c.589-1.65,1.784-4.933,2.39-6.582C444.479,93.928,439.917,94.063,435.54,92.867Z" transform="translate(10012.269 1024.551)" fill="#f8fcfe"/>
    <path id="Path_3351" data-name="Path 3351" d="M528.193,79.132l5.185-.2c.219,5.724.589,11.481-.236,17.171-1.263.084-3.788.219-5.05.286C528.075,90.63,528.108,84.889,528.193,79.132Z" transform="translate(10075.521 1026.048)" fill="#02a9dd"/>
    <path id="Path_3352" data-name="Path 3352" d="M553.05,79.018c1.313-.034,3.939-.084,5.252-.118a138.082,138.082,0,0,1,.068,17.508c-1.313-.051-3.956-.168-5.286-.219Q553.084,87.6,553.05,79.018Z" transform="translate(10092.581 1026.028)" fill="#02a9dd"/>
    <path id="Path_3367" data-name="Path 3367" d="M497.061,178.784c1.3,0,3.889-.017,5.185-.034.269,7.34.3,14.7-.067,22.036l-5.168.135A206.63,206.63,0,0,1,497.061,178.784Z" transform="translate(10054.095 1094.27)" fill="#77c9ea"/>
    <path id="Path_3371" data-name="Path 3371" d="M490.586,181.629c1.717-.1,3.434-.185,5.168-.269a155.918,155.918,0,0,1,.32,17.744c-1.919-.084-3.821-.168-5.724-.236C490.35,193.11,490.417,187.37,490.586,181.629Z" transform="translate(10049.729 1096.054)" fill="#77c9ea"/>
    <path id="Path_3372" data-name="Path 3372" d="M515.633,182.154c1.852-.3,3.687-.623,5.555-.909l1.111-.185a24.306,24.306,0,0,1-.151,8.333,62.894,62.894,0,0,0-1.38,10.017c-1.835-.152-3.636-.3-5.437-.438Q515.355,190.563,515.633,182.154Z" transform="translate(10066.801 1095.849)" fill="#77c9ea"/>
    <path id="Path_3377" data-name="Path 3377" d="M497.215,212.284c1.212-.017,3.636-.017,4.848-.034a156.764,156.764,0,0,1,.017,22.844c-1.212,0-3.636,0-4.865-.017A128.844,128.844,0,0,1,497.215,212.284Z" transform="translate(10054.075 1117.165)" fill="#ff9d00"/>
    <path id="Path_3381" data-name="Path 3381" d="M515.541,216.093c1.768-.32,3.552-.64,5.353-.943.219,5.976.236,11.986.051,17.979h-4.932C515.642,227.456,515.524,221.783,515.541,216.093Z" transform="translate(10066.944 1119.147)" fill="#02a9dd"/>
    <path id="Path_3382" data-name="Path 3382" d="M528.3,215.365l4.714-.135a65.552,65.552,0,0,1,.067,17.878l-4.832-.135Q527.924,224.161,528.3,215.365Z" transform="translate(10075.528 1119.202)" fill="#ff9d00"/>
    <path id="Path_3385" data-name="Path 3385" d="M497.165,246.2c1.229.017,3.653.034,4.865.051a158.244,158.244,0,0,1,0,22.777l-4.831-.135A143.839,143.839,0,0,1,497.165,246.2Z" transform="translate(10054.092 1140.369)" fill="#02a9dd"/>
    <path id="Path_3386" data-name="Path 3386" d="M515.3,249.338c1.97-.034,3.956-.084,5.943-.118-.084,5.488-.118,10.959.168,16.43-1.229-.2-3.687-.64-4.916-.842A74.559,74.559,0,0,1,515.3,249.338Z" transform="translate(10066.777 1142.432)" fill="#77c9ea"/>
    <path id="Path_3387" data-name="Path 3387" d="M553.143,249.18c1.246.017,3.771.017,5.017.017a77.155,77.155,0,0,1-.168,17.845c-1.145-.034-3.468-.118-4.613-.151C553.042,261,552.991,255.089,553.143,249.18Z" transform="translate(10092.589 1142.405)" fill="#77c9ea"/>
    <path id="Path_3389" data-name="Path 3389" d="M540.781,78.85c1.313.084,3.939.286,5.235.37.034,5.5.051,11.01.084,16.515L540.714,96C540.512,90.281,540.546,84.557,540.781,78.85Z" transform="translate(10084.059 1025.993)" fill="#ff9d00"/>
    <path id="Path_3403" data-name="Path 3403" d="M435.6,87.38c2.946,1.263,6.06,2.172,9.074,3.3,3.569,4.04-2.491,12.323-7.289,8.653C433.4,96.622,435.786,91.252,435.6,87.38Z" transform="translate(10011.938 1031.823)" fill="#f8fcfe"/>
    <path id="Path_3404" data-name="Path 3404" d="M561.69,104.34q5.4,0,10.858.051c.067,4.04.151,8.1.253,12.138-2.9-.707-5.774-1.4-8.67-2.071A98.378,98.378,0,0,0,561.69,104.34Z" transform="translate(10098.485 1043.415)" fill="#f1fafd"/>
    <path id="Path_3405" data-name="Path 3405" d="M560.755,94.982c10.909-6.734,25.656-5.673,36.615.471.758.539,1.532,1.077,2.34,1.616,5.168,3.939,8.518,9.511,11.986,14.882,3.737,1.566,8.283.4,12.34.673.067,4.512.152,9.006.286,13.518a26.9,26.9,0,0,1,15.235,15.286,29.669,29.669,0,0,1-.623,14.865c-2.306,4.141-5,8.636-9.68,10.387-7.121,2.71-14.9,2.256-22.356,2.795,5.4,2.609,11.548,1.246,17.323,1.38.657,11.195-1.616,22.659,1.027,33.652,5.589-4.882,11.414-9.461,17.138-14.191.32-.758.976-2.289,1.313-3.047l3.434.808c-7.576,5.791-14.663,12.205-22.221,18.013-3.384-6.094-6.986-12.054-10.421-18.114-6.364,3.771-12.878,7.272-19.141,11.229-.471-1.229-1.448-3.653-1.936-4.865-1.734-1.549-3.569-2.963-5.387-4.377-8.1-6.01-15.791-12.592-24.258-18.047-25.269-.505-50.722.488-76.058-.455.253-.219.774-.673,1.027-.909,17.238.741,34.511.185,51.766.421,7.256,0,14.663.505,21.767-1.347.387-.051,1.145-.135,1.532-.185,1.582,1.549,3.283,3.653,5.757,3.552-.673-.976-2-2.929-2.677-3.906l2.643-.3c1.6,4.916,4.04,9.528,8.417,12.609q-1.338-5.1-2.357-10.286c.067-.758.185-2.29.253-3.047.842,3.788,1.818,7.559,2.525,11.4,4.579,6.363,11.717,10.017,17.424,15.235,5.084-2.273,10.235-4.411,15.37-6.582-2.172-6.178.387-14.494-5.421-18.939a83.2,83.2,0,0,0-9.141-.522c.774,2.273,1.6,4.562,2.357,6.852-1.162-1.768-2.289-3.569-3.367-5.37-4.31-.185-8.619-.3-12.9-.421,2.155,5.791,6.9,9.714,11.279,13.787-3.939-2.172-8.131-4.68-10.1-8.905-1.549-3.569-2.138-7.441-3.047-11.195l1.717,1.481c3.148,2.289,7.592.673,11.245,1.263a23.815,23.815,0,0,1-2.02-12.357c-3.535.152-7.054.253-10.572.337-.606-8.973.758-18.063-.774-26.935a22.627,22.627,0,0,0-6.263-1.077c4.461-4.091,8.249-8.939,13.165-12.542,4.613,3.821,8.6,8.333,12.777,12.626-1.65.05-4.932.168-6.565.219-.118,8.939,0,17.878-.1,26.817,6.212,1.33,7.576,8.2,10.841,12.71,7.912-.286,16.717.96,23.686-3.687,10.437-7.66,9.764-25.656-1.128-32.642-4.562-3.6-10.5-4.108-16.094-3.956-1.364-12.171-7.828-24.208-18.854-30.117-10.033-5.471-22.508-4.629-32.474.589l1.347-1.145m51.5,18.905A98.378,98.378,0,0,1,614.693,124c2.9.673,5.774,1.364,8.67,2.071-.1-4.04-.185-8.1-.253-12.138q-5.454-.051-10.858-.051m-35.083,11.481c1.094.118,3.283.354,4.36.455.539,8.99.034,17.979.4,26.969,3.35.034,6.7.051,10.05.084-.017-9.023.034-18.047-.034-27.07,1.263-.168,3.788-.539,5.05-.724-3.165-3.485-6.464-6.818-9.815-10.118a72.251,72.251,0,0,0-10.017,10.4m16.262,28.551c-1.667,4.175.017,8.316,1.9,12.087,1.835-.034,5.488-.067,7.306-.084-2.643-4.276-4.175-9.882-9.208-12m16.717,17.861a85.462,85.462,0,0,0,1.65,14.781c6.633.219,6.8,9.158,11.111,12.828.438-9.175.32-18.35.337-27.524C618.867,171.865,614.507,171.882,610.147,171.781Z" transform="translate(10047.924 1033.868)" fill="#000102"/>
    <path id="Path_3406" data-name="Path 3406" d="M429.61,93.3c2.542-.354,5.1-.69,7.66-1.044a11.834,11.834,0,0,0,4.495,5.791c-2.862,1.751-5.741,3.451-8.619,5.168C431.815,99.953,430.654,96.654,429.61,93.3Z" transform="translate(10008.216 1035.158)" fill="#fbfbfb"/>
    <path id="Path_3407" data-name="Path 3407" d="M443.858,92.32c2.492.32,4.983.64,7.491.976-.808,2.963-1.633,5.926-2.424,8.889a92.772,92.772,0,0,1-9.545-3.754C440.912,96.428,442.427,94.407,443.858,92.32Z" transform="translate(10014.894 1035.199)" fill="#fafafa"/>
    <path id="Path_3411" data-name="Path 3411" d="M461.831,123.17c2.862,2.02,5.555,4.293,8.266,6.549.1,3.855.168,7.727.067,11.6-2.845,2.155-5.606,4.444-8.384,6.7C461.814,139.735,460.787,131.419,461.831,123.17Z" transform="translate(10029.916 1056.284)" fill="#fdfdfd"/>
    <path id="Path_3413" data-name="Path 3413" d="M537.543,141.638c-.522-3.535-6.212-10.32-.539-11.548,4.074,3.4,5.4,8.905,6.6,13.872q1.01,5.177,2.357,10.286C541.583,151.167,539.142,146.554,537.543,141.638Z" transform="translate(10079.907 1061.013)" fill="#fdfdfd"/>
    <path id="Path_3414" data-name="Path 3414" d="M468.388,150.845c1.246-1.128,3.72-3.417,4.966-4.545-.135,71.4.05,142.807-.1,214.2-3.468-2.088-7.205-4.04-9.646-7.374-2.121-2.593-2.963-6.565-6.767-7.222.522-5.286.943-10.572,1.3-15.858l5.1.2c2.424-19.376,4.091-38.837,6.229-58.247,1.279-12.929-1.212-25.723-2.155-38.568-1.431-15.622-3.03-31.245-4.276-46.9.96.067,2.879.185,3.838.253.067-7.037.067-14.09-.387-21.11C469.079,161.182,467.564,155.761,468.388,150.845Z" transform="translate(10026.826 1072.092)" fill="#fdfdfd"/>
    <path id="Path_3415" data-name="Path 3415" d="M471.609,167.454a13.058,13.058,0,0,1,4.528-9.764c.455,6.616.4,13.266.455,19.915-11.767.236-23.535,0-35.3.135,4.124-3.973,8.182-8.013,12.626-11.649A94.631,94.631,0,0,0,471.609,167.454Z" transform="translate(10016.198 1079.876)" fill="#fdfdfd"/>
    <path id="Path_3418" data-name="Path 3418" d="M479.58,284.245c9.006-.185,18.77,2.205,27.036-2.525,3.653.37,7.272,1.683,10.909,2.525,7.239-2.811,16.6-2.71,22.878,2.155-19.848-.1-39.763.471-59.577-.253Z" transform="translate(10042.367 1164.645)" fill="#fdfdfd"/>
    <path id="Path_3419" data-name="Path 3419" d="M436.55,96.34c1.229.034,3.67.084,4.9.1.236,8.788.421,17.609-.1,26.38l-3.973-.471C435.994,113.814,437.308,104.976,436.55,96.34Z" transform="translate(10012.959 1037.947)" fill="#fcfcfc"/>
    <path id="Path_3426" data-name="Path 3426" d="M505.832,104.636c9.242-.539,18.484-.118,27.743-.286-.859,2.256-1.7,4.512-2.525,6.784-9.882-3.081-21.127-2.071-29.46,4.461C503,111.942,504.553,108.34,505.832,104.636Z" transform="translate(10057.41 1043.421)" fill="#f1fafd"/>
    <path id="Path_3427" data-name="Path 3427" d="M530.046,105.25c4.141.034,8.283.051,12.424.1-.118,9.107,0,18.215-.1,27.322,1.566.017,4.68.067,6.229.084a87.563,87.563,0,0,1-11.346,11.818c-1.953,1.263-3.569-.993-4.865-2.087-3.2-3.081-6.178-6.38-9.276-9.579,2.273-.152,4.562-.32,6.852-.488.084-9.057.034-18.114.084-27.171m.909.96c-.387,9.293.05,18.585-.387,27.878-1.162-.084-3.518-.236-4.7-.32,3.182,3.384,5.858,8.367,10.421,9.831,3.5-2.795,6.431-6.212,9.663-9.276-1.162-.2-3.5-.606-4.68-.791-.673-9.091.168-18.215-.438-27.289C537.52,106.226,534.237,106.21,530.955,106.21Z" transform="translate(10072.118 1044.036)" fill="#010102"/>
    <path id="Path_3433" data-name="Path 3433" d="M529.834,105.82c3.283,0,6.565.017,9.882.034.606,9.074-.236,18.2.438,27.289,1.178.185,3.518.589,4.68.791-3.232,3.064-6.161,6.481-9.663,9.276-4.562-1.465-7.239-6.448-10.421-9.831,1.178.084,3.535.236,4.7.32C529.884,124.405,529.447,115.113,529.834,105.82Z" transform="translate(10073.239 1044.426)" fill="#ff9d00"/>
    <path id="Path_3434" data-name="Path 3434" d="M540.85,115.384a72.247,72.247,0,0,1,10.016-10.4c3.35,3.3,6.65,6.633,9.815,10.118-1.263.185-3.788.556-5.05.724.067,9.023.017,18.047.034,27.07-3.35-.034-6.7-.051-10.05-.084-.37-8.99.135-17.979-.4-26.969C544.133,115.737,541.944,115.5,540.85,115.384Z" transform="translate(10084.242 1043.852)" fill="#ff9d00"/>
    <path id="Path_3435" data-name="Path 3435" d="M433.614,197.962c5.976-8.4,1.7-19.141,4.613-28.332.892,10.959,2.407,23.821-5.707,32.625-5.488,6.683-14.511,8.232-22.693,7.9-.219,10.724-.438,21.447-.4,32.188,2.66-.387,5.337-.791,8.03-1.178l.118,1.683c-1.246.152-3.7.455-4.949.606l1.044,1.162c-1.65-.64-3.283-1.279-4.916-1.9.589-18.669.118-37.356,1.246-55.991q-.025,10.858-.219,21.733C418.884,209.191,428.834,206.363,433.614,197.962Z" transform="translate(9993.959 1088.037)" fill="#b7bcc4"/>
    <path id="Path_3437" data-name="Path 3437" d="M509.559,178.31c1.667.118,3.333.269,5,.488.96,7.357.2,14.814.4,22.2-1.9.017-3.788.034-5.656.067C509.323,193.478,509.172,185.885,509.559,178.31Z" transform="translate(10062.674 1093.969)" fill="#ff9d00"/>
    <path id="Path_3438" data-name="Path 3438" d="M446.672,183.33c.118.522.354,1.582.471,2.1-3.316,2.306-6.582,4.781-10.353,6.3C439.4,188.212,443.238,185.956,446.672,183.33Z" transform="translate(10013.123 1097.4)" fill="#b7bcc4"/>
    <path id="Path_3439" data-name="Path 3439" d="M490.91,215.65c1.279.067,3.855.219,5.135.286-.067,5.572-.118,11.128-.152,16.7-1.212.034-3.653.1-4.865.118A96.738,96.738,0,0,1,490.91,215.65Z" transform="translate(10049.893 1119.489)" fill="#77c9ea"/>
    <path id="Path_3440" data-name="Path 3440" d="M478.34,110.79Z" transform="translate(10041.521 1047.823)" fill="#afb0b4"/>
    <path id="Path_3445" data-name="Path 3445" d="M495.564,129.746c-.656-2,.572-5.135,1.953-6.3.455,2.071,2.088,4.209,1.279,6.363Z" transform="translate(10053.168 1056.475)" fill="#f1fafd"/>
    <path id="Path_3446" data-name="Path 3446" d="M550.787,128.12c5.034,2.121,6.565,7.727,9.208,12-1.818.017-5.471.051-7.306.084C550.8,136.436,549.12,132.295,550.787,128.12Z" transform="translate(10090.568 1059.667)" fill="#f8f8f8"/>
    <path id="Path_3447" data-name="Path 3447" d="M581.86,137.833c2.643-2.138,5.286-4.259,8-6.313q5.328,1.465,10.757,2.542c1.667,6.464,3.266,12.963,4.714,19.478-3.906-.051-7.794-.118-11.7-.168-.572-2.172-1.145-4.343-1.734-6.5,1.667-.572,3.35-1.128,5.05-1.65-.286-.269-.842-.774-1.111-1.044-2.761-4.394-7.963-5.724-11.919-2.087C583.224,140.678,582.533,139.247,581.86,137.833Z" transform="translate(10112.271 1061.991)" fill="#f1fafd"/>
    <path id="Path_3448" data-name="Path 3448" d="M529.991,133.8a5.244,5.244,0,0,1,6.515,1.33C535.968,137.785,528.375,136.792,529.991,133.8Z" transform="translate(10076.667 1063.116)" fill="#fcfdfc"/>
    <path id="Path_3449" data-name="Path 3449" d="M583.08,138.653c3.956-3.636,9.158-2.306,11.919,2.087C590.807,142.811,586.38,141.549,583.08,138.653Z" transform="translate(10113.104 1065.429)" fill="#eef0f3"/>
    <path id="Path_3450" data-name="Path 3450" d="M532.91,137.484c.758-.084,2.306-.269,3.081-.354.673.976,2,2.929,2.677,3.906C536.193,141.137,534.492,139.032,532.91,137.484Z" transform="translate(10078.816 1065.825)" fill="#dcdde0"/>
    <path id="Path_3452" data-name="Path 3452" d="M517.975,144.328c1.785.05,3.586.118,5.4.185.656,4.411-1.7,11.212,4.141,12.66.556-2.323,1.128-4.646,1.7-6.969,1.111.017,3.316.05,4.427.084.118,1.465.337,4.394.455,5.858,1.2-.067,3.6-.2,4.8-.286,0-3.586.017-7.188.051-10.774,1.38,0,4.125.017,5.488.017q.051,5.4.135,10.791l4.192.067c.96-2.138.741-5.252,3.114-6.481,3.5-.758,2.34,4.175,3.451,6.178,1.078.118,3.232.37,4.31.505a67.932,67.932,0,0,1,.926-11.111c1.582-.337,3.165-.623,4.781-.842q.177,6.742.3,13.484c-22.895-.219-45.773.1-68.668-.051-.236-4.158-.2-8.333-.2-12.491,1.38,0,4.141.017,5.522.034q0,5.353.034,10.74c1.212.017,3.67.067,4.882.084.084-1.431.269-4.276.354-5.707,1.212-.067,3.636-.185,4.848-.253.084,1.431.236,4.31.32,5.741,1.246.05,3.737.168,4.983.219C517.79,152.122,517.891,148.217,517.975,144.328Z" transform="translate(10054.122 1070.664)" fill="#02a9dd"/>
    <path id="Path_3455" data-name="Path 3455" d="M490.936,147.64l5.05.4c0,5.589-.017,11.178-.1,16.767-1.229.051-3.67.185-4.9.236A98.546,98.546,0,0,1,490.936,147.64Z" transform="translate(10049.883 1073.008)" fill="#ff9d00"/>
    <path id="Path_3457" data-name="Path 3457" d="M540.831,256.92c1.734-1.111,3.586-2.02,5.421-2.98-.084,3.3-.185,6.6-.269,9.915-1.885-.253-3.754-.505-5.623-.741A36.3,36.3,0,0,1,540.831,256.92Z" transform="translate(10083.907 1145.658)" fill="#77c9ea"/>
    <path id="Path_3458" data-name="Path 3458" d="M547.631,149.53c1.818,1.414,3.653,2.828,5.387,4.377.084.943.236,2.862.32,3.821-.034.875-.1,2.643-.135,3.518-2.088,1.2-4.192,2.34-6.313,3.451A84.6,84.6,0,0,1,547.631,149.53Z" transform="translate(10088.32 1074.3)" fill="#77c9ea"/>
    <path id="Path_3462" data-name="Path 3462" d="M579.32,209.37c3.67,7.054,1.549,15.454,1.566,23.063-2.222-3.434-4.343-6.9-6.582-10.32-6.448,11.4-12.794,22.861-19.7,33.989,1.061,2.222,2.155,4.427,3.266,6.65-2.778-.1-5.522-.185-8.283-.236q13.282-23.156,26.683-46.244A40.75,40.75,0,0,0,579.32,209.37Z" transform="translate(10090.216 1115.197)" fill="#e0e3e8"/>
    <path id="Path_3465" data-name="Path 3465" d="M520.28,182.5c12.39.067,24.8-.3,37.187.168.152,1.111.455,3.316.606,4.427-12.441.067-24.881.219-37.305-.034C520.65,185.918,520.4,183.645,520.28,182.5Z" transform="translate(10070.184 1096.782)" fill="#fefefe"/>
    <path id="Path_3472" data-name="Path 3472" d="M433.478,167.432q4.141-1.212,2.761,2.9C433.478,171.153,432.569,170.193,433.478,167.432Z" transform="translate(10010.627 1086.346)" fill="#c1c3c9"/>
    <path id="Path_3474" data-name="Path 3474" d="M547.28,185.262c7.171-4.141,16.094-1.3,24.006-1.869,3.771.286,7.963.471,10.825,3.333-6.38,2.727-13.518,4.512-18.619,9.512-5.4,4.882-7.677,12.087-12.272,17.609.067-.707.219-2.121.286-2.828A40.918,40.918,0,0,1,574,187.029c-8.165.219-16.346.623-24.494.067Z" transform="translate(10088.637 1097.152)" fill="#f8fcfe"/>
    <path id="Path_3475" data-name="Path 3475" d="M527.92,185.8q6.566-.076,13.165.135a49.976,49.976,0,0,0-7.862,11.75l-.4-1.027-4.512-1.01Q528.105,190.722,527.92,185.8Z" transform="translate(10075.405 1099.074)" fill="#77c9ea"/>
    <path id="Path_3479" data-name="Path 3479" d="M560.42,199.63c-.067.707-.219,2.121-.286,2.828-7.559,14.377-15.993,28.4-24.292,42.389-2.458-7.693-1.364-15.824-1.364-23.737,2-.135,4.023-.269,6.06-.387,1.38,2.037,2.761,4.074,4.225,6.077C549.731,217.609,554.865,208.485,560.42,199.63Z" transform="translate(10079.722 1108.54)" fill="#77c9ea"/>
    <path id="Path_3480" data-name="Path 3480" d="M478.94,206.5c31.177-.825,62.372-.2,93.566-.32l2.087,3.5c-31.262-.892-62.557.017-93.835-.455C480.3,208.534,479.395,207.187,478.94,206.5Z" transform="translate(10041.931 1112.936)"/>
    <path id="Path_3481" data-name="Path 3481" d="M479.014,206.32c.455.69,1.364,2.037,1.818,2.727l.1,1.7c.034,12.154-.168,24.309.067,36.464,26.312-.253,52.625.067,78.937-.168,2.963.017,6.2-.152,8.552,2.1-29.763.707-59.577.32-89.357.2C478.66,235.006,478.845,220.663,479.014,206.32Z" transform="translate(10041.856 1113.113)"/>
    <path id="Path_3482" data-name="Path 3482" d="M580.729,206.714c.758-.017,2.256-.017,3-.034.168,26.683.522,53.416-.4,80.082-1.212-2.054-2.542-4.04-3.906-5.959.32-.859.943-2.542,1.246-3.4l-1.532-.135c1.414-.96,2.845-1.885,4.31-2.778q-1.894-3.434-3.8-6.818C581.807,247.487,579.753,227,580.729,206.714Z" transform="translate(10110.405 1113.359)"/>
    <path id="Path_3483" data-name="Path 3483" d="M480.02,207.94c31.279.471,62.574-.438,93.835.455-5.892,1.616-12.037,1.33-18.08,1.246-25.218-.034-50.436-.337-75.654,0Z" transform="translate(10042.668 1114.22)" fill="#eff2f7"/>
    <path id="Path_3485" data-name="Path 3485" d="M398.788,254.55c10.235,1.515,20.286,4.124,30.336,6.549a133.533,133.533,0,0,1-7.693,14.461c-8.838-4.04-17.794-7.828-26.75-11.6A76.525,76.525,0,0,0,398.788,254.55Z" transform="translate(9984.343 1146.075)" fill="#f8fcfe"/>
    <path id="Path_3494" data-name="Path 3494" d="M521.75,245.75c2.441.96,4.9,1.953,7.34,2.98-2.138,3.182-4.192,6.414-6.4,9.545C522.39,254.083,522,249.925,521.75,245.75Z" transform="translate(10071.188 1140.061)" fill="#77c9ea"/>
    <path id="Path_3495" data-name="Path 3495" d="M490.31,249.479c1.936-.1,3.889-.185,5.842-.269q.05,8.762-.084,17.558c-1.885.017-3.754.051-5.606.084C490.478,261.061,490.445,255.27,490.31,249.479Z" transform="translate(10049.701 1142.426)" fill="#77c9ea"/>
    <path id="Path_3500" data-name="Path 3500" d="M569.5,261.32C575.007,261.943,566.926,266.539,569.5,261.32Z" transform="translate(10103.468 1150.702)" fill="#dfe0e4"/>
  </g>
</svg>
