<svg xmlns="http://www.w3.org/2000/svg" width="32.398" height="6.346" viewBox="0 0 32.398 6.346">
  <g id="Group_506" data-name="Group 506" transform="translate(-249.393 -1894.802)">
    <path id="Path_1673" data-name="Path 1673" d="M25.385,45.584c-.054.054-.054.054-.054.107a6.791,6.791,0,0,1-5.686,1.234A29.127,29.127,0,0,1,15.14,45.8c-.107-.054-.215-.054-.322-.107a1.4,1.4,0,0,1-.429-.161c-.59-.215-1.234-.375-1.824-.536a.68.68,0,0,0-.322-.054,13.415,13.415,0,0,0-2.038-.322c-.107,0-.268-.054-.375-.054a12.253,12.253,0,0,0-1.985,0c-.161,0-.322.054-.429.054.054.107.161.215.215.322h0c-.054-.107-.161-.215-.215-.322a7.354,7.354,0,0,0-1.877.429c-.107.054-.268.054-.375.161a5.924,5.924,0,0,0-1.341.8,2.332,2.332,0,0,0-.322.375,5.4,5.4,0,0,1,1.985-.375,11.036,11.036,0,0,1,3.272.59.323.323,0,0,0,.215.054,41.908,41.908,0,0,1,4.023,1.609c.375.161.8.322,1.18.483a15.355,15.355,0,0,0,3.755.912,8.355,8.355,0,0,0,4.989-1.395c.054-.054.161-.107.215-.161a9.172,9.172,0,0,0,.751-.59,10.582,10.582,0,0,0,1.609-1.824C25.546,45.638,25.439,45.638,25.385,45.584Z" transform="translate(245.893 1851.483)" fill="#02a9dd"/>
    <path id="Path_1674" data-name="Path 1674" d="M48.1,44.059a6.328,6.328,0,0,1-1.073.215h-.644a6.045,6.045,0,0,1-.966-.161c-.268-.054-.483-.107-.751-.161-.7-.161-1.341-.322-1.985-.536-.054,0-.107-.054-.161-.054a15.389,15.389,0,0,0-5.579-1.073,5.4,5.4,0,0,0-3.648,1.18c.8.161,1.395-.161,2.092,0A18.115,18.115,0,0,1,39.147,44.7a.2.2,0,0,0,.161.054c.8.322,1.716.7,2.521,1.073a7.5,7.5,0,0,0,1.824.429,6.324,6.324,0,0,0,3.594-.59c.161-.054.322-.215.483-.268a7.061,7.061,0,0,0,1.985-1.824A7.62,7.62,0,0,0,48.1,44.059Z" transform="translate(232.078 1852.525)" fill="#77c9ea"/>
  </g>
</svg>
