<?xml version="1.0" encoding="utf-8"?>
<!-- Generator: Adobe Illustrator 18.0.0, SVG Export Plug-In . SVG Version: 6.00 Build 0)  -->
<!DOCTYPE svg PUBLIC "-//W3C//DTD SVG 1.1//EN" "http://www.w3.org/Graphics/SVG/1.1/DTD/svg11.dtd">
<svg version="1.1" id="Layer_1" xmlns="http://www.w3.org/2000/svg" xmlns:xlink="http://www.w3.org/1999/xlink" x="0px" y="0px"
	 viewBox="0 0 156.9 1019.2" enable-background="new 0 0 156.9 1019.2" xml:space="preserve">
<g opacity="0.5">
	<path fill="#077C9E" d="M143.2,967.5c0,4.6-0.3,9.6-0.8,15.1c-0.5,5.5-1.2,10.8-2,15.9c-0.8,5.2-1.5,9.6-2.1,13.2l-19.8-1.6
		c0.5-3.8,1-8.1,1.5-13.1c0.5-5,1-9.9,1.4-14.8c0.4-4.9,0.5-9.2,0.5-12.8c0-4.6-0.6-8.4-1.8-11.3c-1.2-2.9-3.1-5.1-5.6-6.5
		c-2.5-1.4-5.7-2.1-9.6-2.1c-3.2,0-5.7,0.6-7.6,1.9c-1.9,1.3-3.4,3.5-4.5,6.8c-1.2,3.3-2.3,7.8-3.4,13.7c-1.3,7.3-2.9,13.5-4.7,18.7
		c-1.8,5.2-4.1,9.4-6.8,12.6s-6.2,5.7-10.5,7.2c-4.2,1.5-9.4,2.3-15.5,2.3c-9.5,0-16.9-1.8-22.3-5.3c-5.4-3.5-9.3-8.6-11.6-15.1
		c-2.3-6.6-3.5-14.3-3.5-23.1c0-4,0.2-8.6,0.6-13.7c0.4-5.2,0.9-10.3,1.5-15.3c0.6-5,1.3-9.3,2-12.8l20,1.1
		c-0.5,3.6-0.9,7.9-1.4,12.6c-0.4,4.8-0.8,9.5-1.2,14.2c-0.4,4.7-0.5,8.6-0.5,11.9c0,4.5,0.5,8.3,1.5,11.3c1,3,2.5,5.3,4.5,6.7
		c2.1,1.5,4.7,2.2,7.8,2.2c3.6,0,6.4-0.7,8.4-2.2c1.9-1.5,3.5-3.9,4.7-7.4c1.2-3.5,2.5-8.2,3.8-14.3c1.6-7.2,3.3-13.3,5.1-18.3
		c1.8-5,4-9.1,6.6-12.2c2.5-3.1,5.8-5.4,9.8-6.8c4-1.5,9-2.2,15.1-2.2c9.7,0,17.5,1.7,23.4,5.2c5.9,3.5,10.1,8.4,12.7,14.9
		C141.9,950.6,143.2,958.4,143.2,967.5z"/>
	<path fill="#077C9E" d="M141.2,903.6H16.9v-46.8c0-10.3,1.4-18.9,4.3-25.7c2.9-6.8,7.4-11.9,13.7-15.4c6.3-3.5,14.7-5.2,25.3-5.2
		c10.6,0,19.1,1.7,25.8,5.2c6.6,3.5,11.5,8.6,14.6,15.4c3.1,6.8,4.6,15.3,4.6,25.7v21.7h36V903.6z M84.6,878.5v-20.9
		c0-7.6-2-13.1-6.1-16.4c-4.1-3.3-10.1-4.9-18.1-4.9c-8.2,0-14.1,1.6-17.7,4.9c-3.5,3.3-5.3,8.7-5.3,16.4v20.9H84.6z"/>
	<path fill="#077C9E" d="M141.2,807.9L16.9,776.2v-43.9l124.3-31.5V726l-25.1,6.9v43.5l25.1,6.6V807.9z M95.9,772.4v-35.9l-58.6,14
		v7.6L95.9,772.4z"/>
	<path fill="#077C9E" d="M143.2,642.3c0,9.7-1.2,17.7-3.7,23.9c-2.5,6.3-6.3,11.2-11.6,14.8c-5.2,3.6-11.9,6.2-19.9,7.6
		c-8.1,1.4-17.7,2.1-28.8,2.1c-11.3,0-21-0.7-29-2.1c-8.1-1.4-14.7-3.9-19.9-7.6c-5.2-3.6-9.1-8.6-11.6-15
		c-2.5-6.4-3.8-14.5-3.8-24.5c0-4,0.2-8.2,0.7-12.6c0.5-4.4,1.1-8.6,1.7-12.6c0.7-4.1,1.4-7.6,2.1-10.5l20,0.7
		c-0.5,2.4-0.9,5.5-1.4,9.1c-0.4,3.6-0.8,7.3-1,11.1c-0.2,3.8-0.4,7.3-0.4,10.6c0,5.8,0.7,10.6,2.2,14.2s3.9,6.5,7.3,8.5
		c3.4,2,7.8,3.4,13.2,4.1c5.4,0.7,12,1.1,19.9,1.1c7.8,0,14.3-0.4,19.7-1.1c5.4-0.7,9.8-2.1,13.1-4c3.3-1.9,5.8-4.8,7.3-8.5
		c1.5-3.7,2.3-8.5,2.3-14.5c0-4.9-0.3-10.2-0.8-16.1c-0.5-5.9-1.1-10.8-1.5-14.7l19.8-0.5c0.6,2.9,1.2,6.4,1.9,10.4
		c0.7,4,1.2,8.3,1.6,12.7C143,633.5,143.2,637.9,143.2,642.3z"/>
	<path fill="#077C9E" d="M141.2,585.9H16.9v-82.6h20.9v57.5H68v-46.6h20.6v46.6h31.7v-57.5h20.9V585.9z"/>
	<path fill="#077C9E" d="M141.2,440.1H16.9v-82.6h20.9V415H68v-46.6h20.6V415h31.7v-57.5h20.9V440.1z"/>
	<path fill="#077C9E" d="M143.2,293c0,9.7-1.2,17.7-3.7,23.9c-2.5,6.3-6.3,11.2-11.6,14.8c-5.2,3.6-11.9,6.2-19.9,7.6
		c-8.1,1.4-17.7,2.1-28.8,2.1c-11.3,0-21-0.7-29-2.1c-8.1-1.4-14.7-3.9-19.9-7.6c-5.2-3.6-9.1-8.6-11.6-15
		c-2.5-6.4-3.8-14.5-3.8-24.5c0-4,0.2-8.2,0.7-12.6c0.5-4.4,1.1-8.6,1.7-12.6c0.7-4.1,1.4-7.6,2.1-10.5l20,0.7
		c-0.5,2.4-0.9,5.5-1.4,9.1c-0.4,3.6-0.8,7.3-1,11.1c-0.2,3.8-0.4,7.3-0.4,10.6c0,5.8,0.7,10.6,2.2,14.2s3.9,6.5,7.3,8.5
		c3.4,2,7.8,3.4,13.2,4.1c5.4,0.7,12,1.1,19.9,1.1c7.8,0,14.3-0.4,19.7-1.1c5.4-0.7,9.8-2.1,13.1-4c3.3-1.9,5.8-4.8,7.3-8.5
		c1.5-3.7,2.3-8.5,2.3-14.5c0-4.9-0.3-10.2-0.8-16.1c-0.5-5.9-1.1-10.8-1.5-14.7l19.8-0.5c0.6,2.9,1.2,6.4,1.9,10.4
		c0.7,4,1.2,8.3,1.6,12.7C143,284.2,143.2,288.6,143.2,293z"/>
	<path fill="#077C9E" d="M141.2,236.6H16.9v-25.1h51.9v-48.2H16.9v-25.1h124.3v25.1H89.9v48.2h51.3V236.6z"/>
	<path fill="#077C9E" d="M143.2,63.3c0,13.2-2.3,23.7-7,31.4c-4.7,7.7-11.7,13.2-21.2,16.6c-9.5,3.3-21.3,5-35.5,5
		c-14.3,0-26.3-1.7-35.9-5c-9.6-3.3-16.8-8.9-21.7-16.6c-4.9-7.7-7.3-18.2-7.3-31.4c0-13.2,2.4-23.7,7.3-31.4
		c4.9-7.7,12.1-13.2,21.7-16.6c9.6-3.3,21.5-5,35.9-5c14.4,0,26.4,1.7,35.9,5c9.5,3.3,16.5,8.9,21,16.6
		C140.9,39.6,143.2,50.1,143.2,63.3z M122.1,63.3c0-7.6-1.5-13.4-4.6-17.4c-3.1-3.9-7.8-6.6-14.2-7.9c-6.4-1.3-14.3-2-23.8-2
		c-9.5,0-17.4,0.7-23.9,2.1c-6.5,1.4-11.4,4-14.7,7.9c-3.3,3.9-5,9.6-5,17.3c0,7.5,1.7,13.3,5,17.2c3.3,3.9,8.3,6.6,14.7,8.1
		c6.5,1.5,14.5,2.2,23.9,2.2c9.3,0,17.2-0.7,23.5-2.1c6.3-1.4,11.1-4.1,14.3-8C120.5,76.8,122.1,71,122.1,63.3z"/>
</g>
</svg>
