<?xml version="1.0" encoding="utf-8"?>
<!-- Generator: Adobe Illustrator 18.0.0, SVG Export Plug-In . SVG Version: 6.00 Build 0)  -->
<!DOCTYPE svg PUBLIC "-//W3C//DTD SVG 1.1//EN" "http://www.w3.org/Graphics/SVG/1.1/DTD/svg11.dtd">
<svg version="1.1" id="Layer_1" xmlns="http://www.w3.org/2000/svg" xmlns:xlink="http://www.w3.org/1999/xlink" x="0px" y="0px"
	 viewBox="0 0 60.4 54" enable-background="new 0 0 60.4 54" xml:space="preserve">
<g>
	<g>
		
			<linearGradient id="SVGID_1_" gradientUnits="userSpaceOnUse" x1="70.272" y1="44.9176" x2="70.272" y2="123.2637" gradientTransform="matrix(0.7034 0 0 -0.7034 -20.3087 88.6446)">
			<stop  offset="0.3054" style="stop-color:#FFD085"/>
			<stop  offset="0.7406" style="stop-color:#FF9D00"/>
		</linearGradient>
		<path fill="url(#SVGID_1_)" d="M6.3,42.2c0.2-0.4,0.4-0.7,0.6-1.1c1.1-1.5,2.2-2.3,3.4-3.3c0.6-0.5,1.3-1,2-1.6
			c0.2-0.2,0.4-0.3,0.5-0.4l0,0c0.2-0.1,0.3-0.2,0.4-0.4l0,0c0.1-0.1,0.1-0.2,0-0.3c0.4-0.4,0.6-0.9,1.1-1.5l0.5-0.7
			c0.8-1.3,1.1-1.8,1.8-3.6c0.4-1.5,1.1-2,1.6-2.5c0.5-0.5,1-0.9,1.4-1.8l0.2-0.6c0.3-0.8,0.6-1.5,1.1-2.2c0.4-0.4,0.6-0.8,1-1.1
			c0.5-0.5,0.9-1,1.5-1.8l0.1-0.2c0.9,1.3,1.8,2.2,2.7,3c0.4,0.4,0.9,0.8,1.3,1.3c-0.3,0.3-0.6,0.6-0.9,1l0,0
			c-0.6,0.8-0.8,1.6-1.1,2.4c-0.2,0.6-0.4,1.3-0.8,2c-0.6,1-0.8,1.6-1,2.3c-0.1,0.4-0.3,0.8-0.5,1.3c-0.5,1.1-1.5,1.5-2.5,1.9
			c-0.8,0.4-1.7,0.8-2.5,1.5c-0.8,0.8-1.3,1.7-1.8,2.6l-0.1,0.2c-0.5,0.8-1,1.5-1.5,2.1c-0.4,0.5-0.8,1.1-1.3,1.7l-0.1,0.1
			c-0.4,0.6-0.8,1.2-1.2,1.8c-0.1,0.1-0.1,0.1-0.1,0.2c0.2,0,0.5,0,0.7,0.1c0.4-0.6,0.8-1.1,1.1-1.7l0.1-0.1
			c0.4-0.6,0.8-1.1,1.3-1.6c0.6-0.7,1.1-1.3,1.6-2.2l0.1-0.2c0.6-0.9,1-1.8,1.8-2.5c0.6-0.6,1.5-1.1,2.3-1.4c1.1-0.5,2.2-1,2.7-2.2
			c0.3-0.6,0.4-1,0.5-1.5c0.2-0.6,0.4-1.3,0.9-2.1c0.5-0.8,0.7-1.5,0.9-2.2c0.3-0.8,0.5-1.5,1.1-2.3l0,0c0.3-0.4,0.6-0.6,0.8-0.9
			c0.5,0.6,0.9,1.3,1.3,2.1l0,0l0.1,0.1l0,0l0.1,0.1l0,0l0,0l0,0l0,0l0,0l0,0l0,0l0,0V26l0,0l0,0l0,0l0,0c0.6,1.5,1.3,2.3,2,3l0,0
			l0,0l0,0l0,0l0,0l0,0l0,0l0,0l0,0l0,0l0,0l0,0l0,0l0,0l0,0l0,0l0,0l0,0l0,0l0,0l0,0l0,0l0,0l0,0l0,0l0,0l0,0l0,0l0,0l0,0l0,0l0,0
			l0,0l0,0l0,0l0,0l0,0l0,0l0,0l0,0l0,0l0,0l0,0l0,0l0,0l0,0l0,0l0,0l0,0l0,0l0,0l0,0l0,0l0,0l0,0l0,0l0,0l0,0l0,0l0,0l0,0l0,0l0,0
			l0,0l0,0l0,0l0,0l0,0l0,0l0,0l0,0l0,0l0,0l0,0l0,0l0,0l0,0l0,0l0,0l0,0l0,0l0,0l0,0l0,0l0,0l0,0l0,0l0,0l0,0l0,0l0.1,0.1l0,0l0,0
			l0,0l0,0l0,0l0,0l0,0l0,0l0,0l0,0l0,0l0.1,0.1l0,0l0,0l0,0l0,0l0,0l0,0l0,0l0,0l0.1,0.1l0,0l0,0l0,0l0,0c-0.5,1.3-1.1,2-1.8,2.7
			c-0.9,1-1.9,2-2.5,4.6l-0.1,0.1c-0.2,0.8-0.5,1.9-0.9,2.7c-0.2,0.4-0.8,1-1.4,1.6s-1.3,1.2-1.7,1.4c-0.6,0.3-1,0.6-1.4,0.8
			c-0.2,0.1-1.1,1-1.8,1.6c0.2,0.1,0.4,0.1,0.6,0.2c0.1-0.1,0.4-0.4,0.5-0.5l0,0l0,0c0.4-0.3,0.7-0.6,1.1-0.8
			c0.4-0.2,0.8-0.5,1.3-0.8c0.4-0.2,1.1-0.8,1.8-1.5c0.6-0.6,1.3-1.3,1.5-1.8c0.5-0.8,0.7-1.9,1-2.8l0.1-0.1
			c0.6-2.5,1.5-3.4,2.4-4.4c0.7-0.8,1.5-1.5,2-3l0,0l0,0l0,0l0,0l0,0c0.8-2.3,2-3.3,3.2-4.4c0.7-0.6,1.5-1.3,2.3-2.3
			c0.4-0.5,0.7-0.5,1-0.3c0.4,0.3,0.8,0.9,1.2,1.5c0.3,0.4,0.6,0.8,0.8,1.2c0.5,0.6,0.8,1.4,1.1,2.2l0.2,0.6
			c0.4,0.8,0.8,1.3,1.3,1.8c0.6,0.5,1.2,1.1,1.6,2.4l0.2,0.7c0.3,1,0.4,1.1,1.1,2.4l1.5,2.6l0.1,0.1c0.3,0.3,0.5,0.5,0.7,0.7
			c0,0.1,0.1,0.1,0.1,0.1c0.4,0.4,0.6,0.6,0.9,0.9c0.5,0.5,1.1,0.9,1.9,1.5l0,0c0.5,0.4,0.9,0.7,1.3,1c2.6-4.2,4.1-9.1,4.1-14.4
			C56.7,12.4,44.4,0,29.1,0C13.9,0,1.5,12.3,1.5,27.6c0,4.8,1.2,9.3,3.4,13.2C6.1,42.6,6.3,42.4,6.3,42.2L6.3,42.2z"/>
		
			<linearGradient id="SVGID_2_" gradientUnits="userSpaceOnUse" x1="92.2937" y1="44.9176" x2="92.2937" y2="123.2637" gradientTransform="matrix(0.7034 0 0 -0.7034 -20.3087 88.6446)">
			<stop  offset="0.3054" style="stop-color:#FFD085"/>
			<stop  offset="0.7406" style="stop-color:#FF9D00"/>
		</linearGradient>
		<path fill="url(#SVGID_2_)" d="M51,44.9c0,0-2.4-0.7-3.8-1.4c-1.3-0.6-2.5-3.9-2.7-4.3l0.1-3.2c0-0.1-0.1-0.2-0.1-0.3
			c0,0-3-1.5-3-2.5c-0.1-1.2-2.9-3.4-2.9-3.4c-0.1-0.1-0.4-0.1-0.4,0.1c-0.1,0.1-0.1,0.4,0.1,0.4c0,0,2.5,2,2.6,3
			c0.1,1.1,2.5,2.5,3.2,2.9l-0.1,3.1c0,0.1,0,0.1,0,0.1c0,0,1.4,3.9,3,4.6c0.1,0.1,0.1,0.1,0.2,0.1c0.1,0,0.2,0.1,0.3,0.1
			c1.3,0.4,2.5,0.7,3.7,1C51.2,45.2,51.1,45,51,44.9z"/>
		<path fill="#02A9DD" d="M40.9,46.5c-0.1,0.1-0.1,0.1-0.1,0.2c-3.2,2.6-6.8,2.9-10.6,2.3c-3-0.4-5.7-1.3-8.4-2.1
			c-0.2-0.1-0.4-0.1-0.6-0.2c-0.3-0.1-0.5-0.1-0.8-0.3c-1.1-0.4-2.3-0.7-3.4-1c-0.2-0.1-0.4-0.1-0.6-0.1c-1.3-0.3-2.5-0.5-3.8-0.6
			c-0.2,0-0.5-0.1-0.7-0.1c-1.3-0.1-2.5-0.1-3.7,0c-0.3,0-0.6,0.1-0.8,0.1c0.1,0.2,0.3,0.4,0.4,0.6l0,0c-0.1-0.2-0.3-0.4-0.4-0.6
			c-1.2,0.1-2.4,0.4-3.5,0.8c-0.2,0.1-0.5,0.1-0.7,0.3c-0.8,0.4-1.7,0.8-2.5,1.5c-0.3,0.3-0.3,0.3-0.6,0.7c1.3-0.5,2.5-0.7,3.7-0.7
			c2.1,0,4.2,0.5,6.1,1.1c0.1,0.1,0.3,0.1,0.4,0.1c2.5,0.8,5,1.9,7.5,3c0.7,0.3,1.5,0.6,2.2,0.9c2.3,0.8,4.6,1.5,7,1.7
			c3.5,0.1,6.6-0.8,9.3-2.6c0.1-0.1,0.3-0.2,0.4-0.3c0.5-0.4,1-0.7,1.4-1.1c1.1-1,2.1-2.1,3-3.4C41.1,46.6,40.9,46.6,40.9,46.5z"/>
		<path fill="#77C9EA" d="M57.5,45.6c-0.6,0.2-1.3,0.3-2,0.4c-0.4,0-0.8,0-1.2,0c-0.6-0.1-1.2-0.1-1.8-0.3c-0.5-0.1-0.9-0.2-1.4-0.3
			c-1.3-0.3-2.5-0.6-3.7-1c-0.1,0-0.2-0.1-0.3-0.1c-3.4-1.1-6.8-2.2-10.4-2c-2.3,0-4.6,0.4-6.8,2.2c1.5,0.3,2.6-0.3,3.9,0
			c2.5,0.5,4.7,1.3,7,2.3c0.1,0.1,0.2,0.1,0.3,0.1c1.5,0.6,3.2,1.3,4.7,2c1.1,0.4,2.3,0.7,3.4,0.8c2.4,0.3,4.6-0.1,6.7-1.1
			c0.3-0.1,0.6-0.4,0.9-0.5c1.4-0.8,2.6-2,3.7-3.4C59.5,44.8,58.5,45.2,57.5,45.6z"/>
	</g>
</g>
</svg>
